<svg width="467" height="191" viewBox="0 0 467 191" fill="none" xmlns="http://www.w3.org/2000/svg">
<g clip-path="url(#clip0_87_343)">
<path d="M307.688 66.3183C308.406 66.0083 309.182 65.8536 309.964 65.8643C310.747 65.875 311.518 66.0509 312.228 66.3804C312.937 66.7099 313.569 67.1857 314.082 67.7765C314.595 68.3673 314.978 69.0598 315.204 69.8087C315.275 70.0461 315.329 70.2882 315.366 70.5331L337.545 81.5314L342.678 78.1299L349.064 85.4822L341.227 91.8475C340.285 92.607 339.122 93.0423 337.913 93.089C336.703 93.1356 335.511 92.7911 334.513 92.1064L312.01 76.5448C311.843 76.6158 311.672 76.6782 311.498 76.7316C310.749 76.9582 309.96 77.0239 309.184 76.9245C308.408 76.8251 307.662 76.5628 306.994 76.1548C306.326 75.7468 305.752 75.2023 305.309 74.557C304.867 73.9117 304.566 73.1802 304.425 72.4103C304.384 72.1869 304.356 71.961 304.343 71.7341C304.281 70.5979 304.568 69.4698 305.166 68.5015C305.764 67.5333 306.644 66.7714 307.688 66.3183Z" fill="#FFB8B8"/>
<path d="M32.7074 100.469C32.7074 101.339 33.0531 102.173 33.6684 102.789C34.2837 103.404 35.1183 103.75 35.9885 103.75H41.3437L42.2983 105.48V182.244C42.2983 183.114 42.644 183.948 43.2593 184.564C43.8746 185.179 44.7092 185.525 45.5794 185.525C46.4496 185.525 47.2842 185.179 47.8995 184.564C48.5148 183.948 48.8605 183.114 48.8605 182.244V103.75H228.514L228.564 182.244C228.564 183.114 228.909 183.948 229.525 184.564C230.14 185.179 230.975 185.525 231.845 185.525C232.715 185.525 233.55 185.179 234.165 184.564C234.78 183.948 235.126 183.114 235.126 182.244V103.75H240.931C241.801 103.75 242.636 103.404 243.251 102.789C243.866 102.173 244.212 101.339 244.212 100.469C244.212 99.5983 243.866 98.7637 243.251 98.1484C242.636 97.5331 241.801 97.1874 240.931 97.1874H35.9885C35.5576 97.1874 35.131 97.2723 34.7329 97.4372C34.3348 97.6021 33.9731 97.8437 33.6684 98.1484C33.3637 98.4531 33.122 98.8148 32.9572 99.2129C32.7923 99.611 32.7074 100.038 32.7074 100.469Z" fill="#E5E5E5"/>
<path d="M107.87 146.859V134.744C107.87 134.209 107.657 133.695 107.279 133.316C106.9 132.938 106.386 132.725 105.851 132.725H59.9155C59.38 132.725 58.8664 132.938 58.4878 133.316C58.1091 133.695 57.8964 134.209 57.8964 134.744V146.859H107.87Z" fill="#E5E5E5"/>
<path d="M107.87 151.402H57.8964V167.05H107.87V151.402Z" fill="#E5E5E5"/>
<path d="M57.8964 171.593V183.708C57.8964 184.244 58.1091 184.757 58.4878 185.136C58.8664 185.515 59.38 185.727 59.9155 185.727H105.851C106.386 185.727 106.9 185.515 107.279 185.136C107.657 184.757 107.87 184.244 107.87 183.708V171.593H57.8964Z" fill="#E5E5E5"/>
<path d="M83.1358 141.811C83.9722 141.811 84.6502 141.133 84.6502 140.297C84.6502 139.461 83.9722 138.783 83.1358 138.783C82.2995 138.783 81.6215 139.461 81.6215 140.297C81.6215 141.133 82.2995 141.811 83.1358 141.811Z" fill="white"/>
<path d="M83.1358 162.002C83.9722 162.002 84.6502 161.324 84.6502 160.488C84.6502 159.652 83.9722 158.974 83.1358 158.974C82.2995 158.974 81.6215 159.652 81.6215 160.488C81.6215 161.324 82.2995 162.002 83.1358 162.002Z" fill="white"/>
<path d="M83.0548 181.766C83.8911 181.766 84.5691 181.088 84.5691 180.252C84.5691 179.416 83.8911 178.738 83.0548 178.738C82.2184 178.738 81.5404 179.416 81.5404 180.252C81.5404 181.088 82.2184 181.766 83.0548 181.766Z" fill="white"/>
<path d="M48.4587 92.9138V96.9218C48.4742 97.1402 48.575 97.3437 48.7395 97.4883C48.9039 97.6328 49.1186 97.7068 49.3372 97.6942H65.1975C65.348 97.6943 65.4965 97.6597 65.6315 97.5932L69.6345 95.5892C69.7663 95.5332 69.8786 95.4397 69.9576 95.3203C70.0366 95.2009 70.0787 95.061 70.0787 94.9178C70.0787 94.7747 70.0366 94.6347 69.9576 94.5154C69.8786 94.396 69.7663 94.3025 69.6345 94.2465L65.6315 92.2425C65.4965 92.1759 65.348 92.1414 65.1975 92.1415H49.3372C49.1186 92.1289 48.9039 92.2028 48.7395 92.3474C48.575 92.492 48.4742 92.6955 48.4587 92.9138Z" fill="#3F3D56"/>
<path d="M49.3372 92.1415H52.497V97.6942H49.3372C49.1186 97.7068 48.9039 97.6328 48.7395 97.4883C48.575 97.3437 48.4742 97.1402 48.4587 96.9218V92.9139C48.4742 92.6955 48.575 92.492 48.7394 92.3474C48.9039 92.2029 49.1186 92.1289 49.3372 92.1415Z" fill="#C01C25"/>
<path d="M429.795 141.721C427.772 142.432 425.599 142.61 423.486 142.238C421.374 141.866 419.392 140.956 417.734 139.596C413.509 136.05 412.184 130.208 411.107 124.799C410.044 119.466 408.981 114.133 407.919 108.799L414.593 113.395C419.392 116.7 424.3 120.11 427.623 124.897C430.946 129.684 432.397 136.218 429.727 141.398" fill="#E6E6E6"/>
<path d="M429.225 161.091C429.9 156.171 430.595 151.187 430.121 146.214C429.7 141.798 428.353 137.484 425.61 133.947C424.153 132.073 422.382 130.467 420.374 129.202C419.85 128.872 419.368 129.702 419.89 130.031C423.364 132.226 426.051 135.469 427.564 139.29C429.234 143.539 429.503 148.172 429.215 152.686C429.041 155.416 428.672 158.128 428.3 160.836C428.27 160.959 428.289 161.088 428.351 161.197C428.413 161.307 428.514 161.389 428.635 161.426C428.757 161.459 428.888 161.443 428.999 161.38C429.109 161.317 429.19 161.213 429.225 161.091Z" fill="#F2F2F2"/>
<path d="M422.719 152.385C421.851 153.704 420.658 154.777 419.255 155.501C417.851 156.226 416.285 156.576 414.707 156.52C410.652 156.327 407.271 153.497 404.227 150.809L395.225 142.861L401.183 142.576C405.467 142.371 409.863 142.179 413.944 143.501C418.025 144.822 421.788 148.002 422.535 152.226" fill="#E6E6E6"/>
<path d="M431.134 163.92C427.882 158.167 424.111 151.773 417.373 149.73C415.499 149.163 413.535 148.96 411.585 149.132C410.97 149.185 411.124 150.132 411.737 150.079C415.005 149.808 418.267 150.671 420.974 152.523C423.578 154.296 425.606 156.76 427.322 159.374C428.374 160.975 429.316 162.644 430.257 164.31C430.558 164.843 431.438 164.459 431.134 163.92Z" fill="#F2F2F2"/>
<path d="M436.343 169.975C436.233 168.706 435.778 167.491 435.025 166.463C434.273 165.434 433.253 164.632 432.076 164.144V160.818H426.498V164.249C425.379 164.761 424.417 165.561 423.708 166.567C422.999 167.573 422.57 168.749 422.464 169.975L421.152 185.223H437.655L436.343 169.975Z" fill="#F2F2F2"/>
<path d="M-0.000244141 185.761C-0.000244141 185.627 0.052938 185.499 0.147603 185.404C0.242269 185.309 0.370663 185.256 0.50454 185.256L466.099 185.44C466.378 185.44 466.42 185.482 466.42 185.761C466.42 185.895 466.367 186.023 466.273 186.118C466.178 186.212 466.05 186.266 465.916 186.266H0.50454C0.370663 186.266 0.242269 186.212 0.147603 186.118C0.052938 186.023 -0.000244141 185.895 -0.000244141 185.761Z" fill="#CCCCCC"/>
<path d="M120.786 96.6448L122.443 95.947L123.579 87.6403H138.717L139.949 95.9131L141.431 96.6543C141.502 96.6898 141.559 96.7482 141.593 96.82C141.626 96.8918 141.635 96.9729 141.617 97.0501C141.598 97.1273 141.555 97.196 141.492 97.2452C141.43 97.2945 141.353 97.3212 141.274 97.3212H120.922C120.841 97.3212 120.762 97.2931 120.699 97.2416C120.636 97.1902 120.593 97.1185 120.577 97.0389C120.561 96.9592 120.573 96.8764 120.611 96.8046C120.649 96.7328 120.711 96.6763 120.786 96.6448Z" fill="#E6E6E6"/>
<path d="M92.4152 87.2724V76.7868H169.714V87.2724C169.714 87.6626 169.559 88.0368 169.284 88.313C169.008 88.5891 168.634 88.7447 168.244 88.7456H93.8851C93.4949 88.7447 93.1211 88.5891 92.8455 88.313C92.5699 88.0368 92.4152 87.6626 92.4152 87.2724Z" fill="#CCCCCC"/>
<path d="M92.3373 36.8768C92.3378 36.406 92.5251 35.9546 92.8581 35.6216C93.191 35.2887 93.6424 35.1014 94.1133 35.1009H168.006C168.477 35.1014 168.928 35.2887 169.261 35.6216C169.594 35.9546 169.781 36.406 169.782 36.8768V81.7426H92.3373V36.8768Z" fill="#3F3D56"/>
<path d="M95.5935 77.117V39.7263C95.5939 39.3633 95.7383 39.0153 95.995 38.7586C96.2516 38.5019 96.5997 38.3575 96.9627 38.3571H165.156C165.519 38.3575 165.867 38.5019 166.124 38.7586C166.381 39.0153 166.525 39.3633 166.525 39.7263V77.117C166.525 77.48 166.381 77.828 166.124 78.0847C165.867 78.3414 165.519 78.4857 165.156 78.4861H96.9627C96.5997 78.4857 96.2516 78.3414 95.995 78.0847C95.7383 77.828 95.5939 77.48 95.5935 77.117Z" fill="white"/>
<path d="M239.317 0H307.661V81.6034H239.317V0Z" fill="white"/>
<path d="M239.317 0H307.661V81.6034H239.317V0ZM306.455 1.20567H240.523V80.3977H306.455V1.20567Z" fill="#E5E5E5"/>
<path d="M297.393 39.517H249.586V41.3644H297.393V39.517Z" fill="#F1F1F1"/>
<path d="M292.252 28.4728H292.773V9.78217H274.407V10.3036H292.252V28.4728Z" fill="#CBCBCB"/>
<path d="M255.521 30.1876H273.887V29.6666H256.042V11.4974H255.521V30.1876Z" fill="#CBCBCB"/>
<path d="M297.393 44.3338H249.586V46.1812H297.393V44.3338Z" fill="#F1F1F1"/>
<path d="M297.393 49.1506H249.586V50.998H297.393V49.1506Z" fill="#F1F1F1"/>
<path d="M297.393 57.6282H249.586V59.4757H297.393V57.6282Z" fill="#F1F1F1"/>
<path d="M297.393 62.445H249.586V64.2925H297.393V62.445Z" fill="#F1F1F1"/>
<path d="M297.393 67.262H249.586V69.1094H297.393V67.262Z" fill="#F1F1F1"/>
<path d="M269.861 14.8588L270.343 14.2688L269.616 13.4422L268.969 13.844C268.595 13.551 268.167 13.3349 267.708 13.2081L267.625 12.3788L266.527 12.3077L266.342 13.0966C265.825 13.1521 265.327 13.3186 264.88 13.5847L264.335 13.1392L263.508 13.8653L263.879 14.4637C263.558 14.8722 263.328 15.3454 263.207 15.8508L262.401 15.9321L262.33 17.0301L263.141 17.2199C263.208 17.6938 263.369 18.1495 263.614 18.5605L263.169 19.106L263.895 19.9326L264.493 19.5611C264.878 19.8644 265.321 20.086 265.795 20.2125L265.881 21.0736L266.979 21.1447L267.175 20.3096C267.672 20.2495 268.151 20.0866 268.582 19.8313L269.172 20.3132L269.998 19.5871L269.597 18.9399C269.905 18.5457 270.129 18.0915 270.252 17.6063L271.106 17.5203L271.177 16.4223L270.334 16.2252C270.27 15.7424 270.109 15.2777 269.861 14.8588ZM268.71 18.9128C268.274 19.2958 267.734 19.5409 267.159 19.6171C266.584 19.6934 265.999 19.5973 265.478 19.341C264.957 19.0847 264.524 18.6798 264.234 18.1774C263.943 17.675 263.808 17.0977 263.845 16.5185C263.883 15.9393 264.091 15.3843 264.444 14.9236C264.797 14.4628 265.279 14.1171 265.828 13.9301C266.378 13.7431 266.97 13.7232 267.531 13.873C268.092 14.0228 268.595 14.3354 268.978 14.7715C269.492 15.3562 269.752 16.121 269.702 16.8976C269.652 17.6743 269.295 18.3992 268.71 18.9128Z" fill="#C01C25"/>
<path d="M276.448 22.8421L277.113 22.4704L276.741 21.4348L275.992 21.5708C275.751 21.1608 275.432 20.8024 275.052 20.5162L275.279 19.7142L274.284 19.2448L273.823 19.9108C273.322 19.7726 272.796 19.7442 272.283 19.8276L271.94 19.2129L270.904 19.5847L271.03 20.2776C270.581 20.5395 270.194 20.8954 269.895 21.3208L269.115 21.1003L268.646 22.0954L269.331 22.5701C269.219 23.0355 269.201 23.5184 269.278 23.9907L268.664 24.3344L269.035 25.3699L269.728 25.2442C269.975 25.6677 270.306 26.0365 270.7 26.3281L270.464 27.1609L271.459 27.6303L271.948 26.9253C272.432 27.052 272.938 27.0765 273.432 26.9973L273.804 27.6622L274.839 27.2904L274.703 26.541C275.135 26.2876 275.51 25.9472 275.803 25.5414L276.628 25.7748L277.098 24.7797L276.386 24.2868C276.504 23.8143 276.525 23.3229 276.448 22.8421ZM273.889 26.1902C273.343 26.3863 272.751 26.416 272.187 26.2755C271.624 26.1351 271.115 25.8308 270.725 25.4012C270.335 24.9715 270.081 24.4358 269.995 23.8618C269.91 23.2878 269.996 22.7013 270.244 22.1763C270.491 21.6514 270.889 21.2117 271.386 20.9128C271.884 20.6139 272.459 20.4693 273.038 20.4972C273.618 20.5251 274.177 20.7242 274.643 21.0695C275.11 21.4147 275.463 21.8906 275.659 22.4368C275.922 23.1693 275.884 23.9763 275.552 24.6802C275.22 25.3841 274.621 25.9272 273.889 26.1902Z" fill="#C01C25"/>
<path d="M284.587 18.0918L285.045 17.4831L284.287 16.6861L283.656 17.1134C283.27 16.8357 282.834 16.6369 282.371 16.5284L282.254 15.7032L281.154 15.676L281.001 16.4717C280.487 16.5478 279.995 16.7341 279.56 17.0178L278.997 16.5944L278.2 17.353L278.595 17.936C278.29 18.3571 278.08 18.8391 277.978 19.349L277.176 19.4624L277.149 20.5623L277.967 20.7196C278.053 21.1904 278.232 21.6393 278.494 22.0402L278.07 22.603L278.829 23.4L279.412 23.0049C279.809 23.2925 280.26 23.4963 280.738 23.6038L280.859 24.4607L281.959 24.4878L282.121 23.6456C282.616 23.5657 283.088 23.3838 283.508 23.1115L284.117 23.5694L284.914 22.8108L284.486 22.1803C284.779 21.774 284.984 21.3113 285.088 20.8215L285.937 20.7015L285.965 19.6015L285.115 19.4382C285.032 18.9584 284.852 18.5005 284.587 18.0918ZM283.6 22.1886C283.179 22.5887 282.65 22.8552 282.078 22.9543C281.506 23.0535 280.918 22.9808 280.387 22.7456C279.857 22.5103 279.408 22.123 279.097 21.6326C278.787 21.1422 278.629 20.5708 278.643 19.9906C278.657 19.4104 278.843 18.8475 279.178 18.373C279.512 17.8985 279.979 17.5338 280.521 17.325C281.062 17.1162 281.654 17.0727 282.22 17.1999C282.786 17.3272 283.302 17.6195 283.702 18.0398C284.239 18.6036 284.529 19.3574 284.51 20.1354C284.491 20.9134 284.164 21.652 283.6 22.1886Z" fill="#C01C25"/>
<path d="M139.984 61.6756L141.943 61.52L142.186 58.6929L140.283 58.2052C140.16 56.9856 139.798 55.8022 139.217 54.723L140.611 53.0876L138.784 50.9167L136.986 51.9809C135.96 51.1176 134.76 50.4861 133.468 50.1295L133.324 48.319L130.497 48.0759L130.046 49.8351C128.712 49.9657 127.422 50.383 126.263 51.0585L124.674 49.7028L122.503 51.5298L123.597 53.3794C122.835 54.35 122.274 55.4626 121.946 56.6522L120.135 56.7961L119.892 59.6231L121.651 60.0741C121.774 61.3322 122.152 62.5522 122.761 63.6596L121.313 65.3578L123.14 67.5287L125.043 66.4022C126.042 67.2203 127.201 67.8216 128.445 68.168L128.6 70.1262L131.427 70.3694L131.915 68.4666C133.2 68.3377 134.444 67.943 135.568 67.3075L137.251 68.7424L139.422 66.9155L138.285 64.9949C139.07 64.0144 139.648 62.8853 139.984 61.6756ZM130.384 66.7683C128.893 66.64 127.473 66.0724 126.305 65.1373C125.136 64.2022 124.271 62.9416 123.819 61.5148C123.367 60.088 123.348 58.5592 123.765 57.1217C124.181 55.6842 125.015 54.4025 126.16 53.4388C127.305 52.4751 128.71 51.8725 130.198 51.7074C131.686 51.5423 133.189 51.822 134.517 52.5112C135.846 53.2003 136.94 54.268 137.662 55.5792C138.384 56.8903 138.701 58.386 138.572 59.8772C138.4 61.8769 137.441 63.7263 135.905 65.0186C134.37 66.3109 132.384 66.9403 130.384 66.7683Z" fill="#C01C25"/>
<path d="M353.884 134.034H329.649C329.649 134.731 304.672 135.296 304.672 135.296C304.28 135.592 303.923 135.93 303.607 136.306C302.659 137.437 302.14 138.868 302.143 140.344V141.354C302.144 143.027 302.809 144.632 303.992 145.815C305.175 146.998 306.78 147.663 308.453 147.664H353.884C355.557 147.662 357.161 146.997 358.344 145.814C359.527 144.631 360.192 143.027 360.194 141.354V140.344C360.191 138.671 359.526 137.068 358.343 135.885C357.16 134.702 355.557 134.037 353.884 134.034Z" fill="#3F3D56"/>
<path d="M334.084 147.413H327.522V189.815H334.084V147.413Z" fill="#3F3D56"/>
<path d="M308.845 189.584C308.845 190.293 318.789 189.859 331.055 189.859C343.322 189.859 353.266 190.293 353.266 189.584C353.266 188.875 343.322 183.253 331.055 183.253C318.789 183.253 308.845 188.875 308.845 189.584Z" fill="#3F3D56"/>
<path d="M314.768 184.615L308.58 184.614L305.635 168.564L314.769 168.564L314.768 184.615Z" fill="#FFB8B8"/>
<path d="M316.347 190.613L296.393 190.613V190.36C296.393 189.34 296.594 188.33 296.984 187.388C297.374 186.446 297.946 185.589 298.668 184.868C299.389 184.147 300.245 183.575 301.187 183.185C302.13 182.794 303.14 182.593 304.159 182.593H304.16L316.348 182.594L316.347 190.613Z" fill="#2F2E41"/>
<path d="M305.512 174.661L293.175 146.995C292.145 144.663 292.031 142.029 292.856 139.617C293.681 137.205 295.384 135.192 297.627 133.98L324.387 119.63L336.598 118.591L347.862 117.567L347.944 117.705C348.047 117.88 350.469 122.064 348.832 126.65C347.59 130.13 344.36 132.847 339.232 134.728C327.261 139.117 313.433 142.869 308.043 144.278C307.805 144.338 307.582 144.449 307.39 144.602C307.197 144.755 307.04 144.947 306.927 145.166C306.814 145.382 306.747 145.619 306.729 145.862C306.712 146.105 306.746 146.349 306.828 146.579L318.29 172.33C318.409 172.657 318.452 173.006 318.416 173.352C318.379 173.698 318.263 174.031 318.077 174.325C317.891 174.619 317.641 174.867 317.344 175.048C317.047 175.23 316.713 175.341 316.367 175.374L307.802 175.997C307.73 176.004 307.657 176.007 307.585 176.007C307.147 176.007 306.717 175.88 306.35 175.641C305.982 175.402 305.691 175.062 305.512 174.661Z" fill="#2F2E41"/>
<path d="M318.807 184.615L312.618 184.614L309.674 168.564L318.808 168.564L318.807 184.615Z" fill="#FFB8B8"/>
<path d="M320.385 190.613L300.431 190.613V190.36C300.431 189.34 300.632 188.33 301.022 187.388C301.412 186.446 301.984 185.589 302.705 184.868C303.427 184.147 304.283 183.575 305.225 183.185C306.167 182.794 307.177 182.593 308.197 182.593H308.198L320.385 182.594L320.385 190.613Z" fill="#2F2E41"/>
<path d="M310.056 176.176L297.718 148.509C296.688 146.178 296.574 143.543 297.399 141.131C298.224 138.719 299.928 136.707 302.17 135.494L328.93 121.144L341.142 120.105L349.964 119.34L349.963 119.219C350.067 119.395 352.489 123.578 350.852 128.165C349.61 131.644 348.904 134.362 343.775 136.242C331.805 140.632 317.976 144.383 312.586 145.792C312.348 145.853 312.126 145.963 311.933 146.116C311.741 146.27 311.583 146.462 311.47 146.68C311.357 146.896 311.29 147.133 311.273 147.376C311.256 147.619 311.289 147.863 311.371 148.093L322.833 173.844C322.953 174.171 322.996 174.521 322.959 174.867C322.922 175.212 322.806 175.545 322.621 175.839C322.435 176.133 322.184 176.381 321.887 176.563C321.591 176.744 321.256 176.856 320.91 176.888L312.346 177.511C312.273 177.518 312.201 177.522 312.129 177.522C311.69 177.522 311.261 177.394 310.893 177.155C310.525 176.917 310.234 176.576 310.056 176.176Z" fill="#2F2E41"/>
<path d="M333.307 119.845C332.715 119.427 324.22 123.883 322.706 120.35C329.773 102.682 324.903 95.0532 329.232 84.9218C329.994 83.1743 331.143 81.6224 332.591 80.3827C334.04 79.143 335.751 78.2477 337.595 77.7641L348.826 77.1972L348.884 77.2253C351.419 78.4666 353.485 80.4917 354.778 83.0002C356.071 85.5087 356.521 88.367 356.062 91.1515C356.022 102.178 349.425 110.587 351.731 118.585C351.828 118.919 351.856 119.269 351.814 119.615C351.772 119.96 351.661 120.294 351.487 120.595C351.318 120.887 351.092 121.14 350.821 121.341C350.551 121.541 350.242 121.684 349.914 121.761L335.085 119.783C334.738 119.865 334.378 119.873 334.029 119.805C333.679 119.737 333.348 119.596 333.057 119.39L333.307 119.845Z" fill="#C01C25"/>
<path d="M345.078 73.0023C351.925 73.0023 357.476 67.4515 357.476 60.6043C357.476 53.7571 351.925 48.2063 345.078 48.2063C338.23 48.2063 332.68 53.7571 332.68 60.6043C332.68 67.4515 338.23 73.0023 345.078 73.0023Z" fill="#FFB8B8"/>
<path d="M321.66 102.618L300.119 85.6235C299.947 85.6839 299.772 85.7354 299.596 85.7778C298.835 85.9557 298.046 85.9716 297.279 85.8245C296.512 85.6774 295.785 85.3706 295.144 84.924C294.5 84.4772 293.958 83.8977 293.555 83.2245C293.152 82.5513 292.898 81.7998 292.809 81.0203C292.644 79.6121 293.024 78.194 293.871 77.0568C294.717 75.9197 295.967 75.1494 297.364 74.9041C298.76 74.6588 300.198 74.9569 301.381 75.7374C302.565 76.5179 303.405 77.7216 303.73 79.1017C303.786 79.3431 303.824 79.588 303.846 79.8348L325.29 92.2057L330.626 89.1334L336.538 96.8727L328.252 102.778C327.282 103.464 326.117 103.819 324.929 103.79C323.742 103.761 322.595 103.35 321.66 102.618Z" fill="#FFB8B8"/>
<path d="M339.167 99.2829L326.876 90.925L332.652 82.744C333.419 81.6577 334.545 80.8775 335.832 80.5412C337.118 80.205 338.482 80.3344 339.683 80.9066C340.897 81.4854 341.865 82.4793 342.41 83.7089C342.956 84.9385 343.044 86.3227 342.658 87.6114L339.167 99.2829Z" fill="#C01C25"/>
<path d="M349.026 71.9841C348.368 72.2724 347.019 67.0235 347.623 65.9736C348.522 64.4124 348.469 64.4236 349.065 63.3907C349.662 62.3577 349.795 60.9439 349.023 60.035C348.25 59.1262 346.462 59.2468 346.11 60.3863C346.337 58.2219 344.196 56.482 342.075 55.9931C339.954 55.5041 337.718 55.8077 335.585 55.3726C333.111 54.8677 330.536 52.7933 331.523 50.072C331.693 49.619 331.946 49.2021 332.271 48.8433C333.411 47.5607 335.007 47.013 336.567 46.4835C339.813 45.3818 343.148 44.2663 346.573 44.3879C349.396 44.5355 352.114 45.5026 354.395 47.171C356.677 48.8394 358.422 51.1366 359.418 53.7816C359.654 54.4432 359.837 55.1227 359.965 55.8135C361.141 62.1355 357.47 68.3715 351.507 70.7789L349.026 71.9841Z" fill="#2F2E41"/>
<path d="M172.949 140.299V141.309C172.95 142.982 173.616 144.586 174.799 145.769C175.982 146.952 177.586 147.617 179.259 147.619H224.689C226.363 147.618 227.967 146.953 229.15 145.77C230.333 144.587 230.998 142.982 230.999 141.309V140.299C231.002 138.823 230.484 137.393 229.535 136.261C229.219 135.885 228.862 135.547 228.47 135.252C228.47 135.252 203.493 134.686 203.493 133.99H179.259C177.586 133.992 175.982 134.657 174.8 135.84C173.617 137.023 172.951 138.627 172.949 140.299Z" fill="#3F3D56"/>
<path d="M205.619 147.368H199.057V189.77H205.619V147.368Z" fill="#3F3D56"/>
<path d="M202.086 183.208C189.819 183.208 179.875 188.831 179.875 189.54C179.875 190.249 189.819 189.814 202.086 189.814C214.353 189.814 224.297 190.249 224.297 189.54C224.297 188.831 214.353 183.208 202.086 183.208Z" fill="#3F3D56"/>
<path d="M224.003 167.682L233.136 167.681L230.192 183.732L224.004 183.732L224.003 167.682Z" fill="#FFB8B8"/>
<path d="M222.426 181.712L234.613 181.711H234.614C235.634 181.711 236.644 181.912 237.586 182.302C238.528 182.693 239.385 183.265 240.106 183.986C240.827 184.707 241.399 185.563 241.789 186.506C242.18 187.448 242.38 188.458 242.38 189.478V189.73L222.426 189.731L222.426 181.712Z" fill="#2F2E41"/>
<path d="M231.188 175.125C231.116 175.125 231.043 175.122 230.97 175.115L222.406 174.491C222.06 174.459 221.725 174.348 221.429 174.166C221.132 173.984 220.881 173.737 220.696 173.443C220.51 173.149 220.394 172.816 220.357 172.47C220.32 172.124 220.363 171.774 220.483 171.448L231.945 145.696C232.027 145.467 232.06 145.223 232.043 144.98C232.026 144.736 231.959 144.499 231.846 144.283C231.733 144.065 231.575 143.873 231.383 143.72C231.191 143.567 230.968 143.456 230.73 143.395C225.34 141.986 211.512 138.235 199.541 133.846C194.412 131.965 191.182 129.247 189.941 125.768C188.303 121.181 190.725 116.998 190.829 116.822L190.91 116.685L202.175 117.709L214.386 118.747L241.146 133.097C243.389 134.31 245.092 136.323 245.917 138.735C246.742 141.147 246.628 143.781 245.598 146.113L233.26 173.779C233.082 174.18 232.791 174.52 232.423 174.759C232.055 174.998 231.626 175.125 231.188 175.125Z" fill="#2F2E41"/>
<path d="M220.974 167.682L230.108 167.681L227.163 183.732L220.975 183.732L220.974 167.682Z" fill="#FFB8B8"/>
<path d="M219.397 181.712L231.585 181.711H231.585C232.605 181.711 233.615 181.912 234.558 182.302C235.5 182.693 236.356 183.265 237.077 183.986C237.798 184.707 238.371 185.563 238.761 186.506C239.151 187.448 239.352 188.458 239.352 189.478V189.73L219.398 189.731L219.397 181.712Z" fill="#2F2E41"/>
<path d="M227.654 176.64C227.582 176.64 227.509 176.636 227.437 176.629L218.872 176.006C218.526 175.973 218.191 175.862 217.895 175.68C217.598 175.499 217.348 175.251 217.162 174.957C216.976 174.663 216.86 174.33 216.823 173.984C216.786 173.638 216.83 173.289 216.949 172.962L228.411 147.211C228.493 146.981 228.527 146.737 228.51 146.494C228.492 146.251 228.425 146.014 228.312 145.798C228.199 145.579 228.042 145.387 227.849 145.234C227.657 145.081 227.434 144.97 227.196 144.91C221.806 143.501 207.978 139.749 196.007 135.36C190.879 133.479 187.649 130.762 186.407 127.283C184.77 122.696 187.192 118.512 187.295 118.337L187.377 118.199L198.641 119.223L210.852 120.262L237.612 134.612C239.855 135.824 241.558 137.837 242.383 140.249C243.208 142.661 243.094 145.295 242.064 147.627L229.727 175.293C229.548 175.694 229.257 176.034 228.889 176.273C228.522 176.512 228.092 176.639 227.654 176.64Z" fill="#2F2E41"/>
<path d="M184.5 78.6893C185.335 77.6346 186.519 76.9132 187.84 76.6554C189.16 76.3977 190.529 76.6205 191.699 77.2837C192.856 77.9393 193.744 78.9828 194.206 80.2298C194.668 81.4767 194.675 82.8469 194.224 84.0981L190.832 93.5207L176.938 88.241L184.5 78.6893Z" fill="#C01C25"/>
<path d="M212.278 125.575C211.988 125.781 211.657 125.922 211.307 125.99C210.957 126.057 210.597 126.05 210.251 125.967L188.859 120.879C188.531 120.802 188.222 120.659 187.952 120.459C187.681 120.258 187.455 120.004 187.286 119.713C187.112 119.412 187.001 119.078 186.959 118.733C186.917 118.387 186.945 118.037 187.042 117.702C189.349 109.705 186.324 99.791 182.712 90.2691C182.252 87.4847 182.702 84.6264 183.995 82.1179C185.288 79.6094 187.355 77.5843 189.889 76.343L189.947 76.3149L201.179 76.8818C203.023 77.3654 204.733 78.2607 206.182 79.5004C207.63 80.7401 208.779 82.292 209.541 84.0395C213.87 94.1709 215.11 107.171 213.33 123.784C213.292 124.14 213.179 124.484 212.997 124.793C212.816 125.101 212.571 125.368 212.278 125.575Z" fill="#C01C25"/>
<path d="M205.933 61.7078C207.03 54.949 202.44 48.5808 195.681 47.484C188.923 46.3872 182.554 50.9771 181.458 57.736C180.361 64.4948 184.951 70.863 191.71 71.9598C198.468 73.0566 204.837 68.4667 205.933 61.7078Z" fill="#FFB8B8"/>
<path d="M210.521 101.896L202.235 95.9903L208.146 88.2509L213.483 91.3232L234.927 78.9523C234.948 78.7056 234.987 78.4607 235.043 78.2193C235.294 77.1502 235.857 76.1797 236.659 75.4305C237.462 74.6812 238.469 74.1869 239.553 74.01C240.637 73.8331 241.749 73.9815 242.749 74.4366C243.748 74.8916 244.59 75.6328 245.168 76.5665C245.747 77.5001 246.035 78.5843 245.997 79.6818C245.959 80.7794 245.597 81.841 244.955 82.7325C244.314 83.624 243.423 84.3053 242.394 84.6903C241.366 85.0753 240.246 85.1467 239.177 84.8954C239 84.8529 238.826 84.8014 238.654 84.7411L217.113 101.735C216.177 102.467 215.031 102.878 213.843 102.907C212.656 102.936 211.491 102.582 210.521 101.896Z" fill="#FFB8B8"/>
<path d="M196.115 86.7291C195.729 85.4403 195.817 84.0561 196.363 82.8265C196.909 81.597 197.876 80.603 199.09 80.0242C200.291 79.4521 201.655 79.3227 202.941 79.6589C204.228 79.9951 205.354 80.7753 206.121 81.8616L211.897 90.0426L199.607 98.4005L196.115 86.7291Z" fill="#C01C25"/>
<path d="M198.272 57.9278C198.505 58.3399 198.601 58.8153 198.547 59.2857C198.493 59.756 198.292 60.1972 197.972 60.5459C196.211 62.5378 195.741 65.621 196.376 68.2766C197.137 71.4632 199.16 74.1792 201.157 76.7766C203.154 79.3739 205.221 82.0418 206.098 85.1986C208.175 92.6722 202.596 100.642 195.426 103.603C188.257 106.564 180.092 105.626 172.543 103.842C166.846 102.496 160.966 100.515 157.07 96.1454C153.174 91.7758 152.14 84.3785 156.28 80.2398C159.526 76.9956 164.581 76.7344 169.097 75.9213C173.614 75.1083 178.73 72.7137 179.335 68.1645C179.936 63.6443 175.701 59.9086 174.903 55.4189C173.912 49.836 178.768 44.516 184.262 43.1158C189.757 41.7157 195.553 43.2711 200.875 45.2261C204.97 46.73 209.252 48.692 210.81 53.1485C211.677 55.6267 211.003 58.4506 208.866 59.9756C205.612 62.2981 201.428 60.0563 198.241 57.8754L198.272 57.9278Z" fill="#2F2E41"/>
</g>
<defs>
<clipPath id="clip0_87_343">
<rect width="466.421" height="190.613" fill="white"/>
</clipPath>
</defs>
</svg>
