<svg width="258" height="39" viewBox="0 0 258 39" fill="none" xmlns="http://www.w3.org/2000/svg">
<path d="M6.30176 16.7149C6.30176 9.96882 11.6743 4.5 18.3018 4.5C24.9292 4.5 30.3018 9.96882 30.3018 16.7149C30.3018 23.4082 26.4718 31.2186 20.4962 34.0117C19.1031 34.6628 17.5004 34.6628 16.1074 34.0117C10.1317 31.2186 6.30176 23.4082 6.30176 16.7149Z" stroke="#143771" stroke-width="2.25"/>
<circle cx="18.3018" cy="16.5" r="4.5" stroke="#143771" stroke-width="2.25"/>
<path d="M55.4518 28V11.5L56.5268 12.675H51.5018V10.5H57.9268V28H55.4518ZM61.5047 23.7V21.95L70.4547 10.5H73.1547L64.2797 21.95L63.0047 21.55H76.9797V23.7H61.5047ZM71.2297 28V23.7L71.3047 21.55V17.75H73.6547V28H71.2297ZM94.5172 28.2C93.1672 28.2 91.9255 27.9833 90.7922 27.55C89.6589 27.1 88.6755 26.475 87.8422 25.675C87.0089 24.8583 86.3589 23.9083 85.8922 22.825C85.4255 21.7417 85.1922 20.55 85.1922 19.25C85.1922 17.95 85.4255 16.7583 85.8922 15.675C86.3589 14.5917 87.0089 13.65 87.8422 12.85C88.6922 12.0333 89.6839 11.4083 90.8172 10.975C91.9505 10.525 93.2005 10.3 94.5672 10.3C95.9505 10.3 97.2172 10.525 98.3672 10.975C99.5172 11.425 100.492 12.1 101.292 13L99.7422 14.55C99.0255 13.85 98.2422 13.3417 97.3922 13.025C96.5589 12.6917 95.6505 12.525 94.6672 12.525C93.6672 12.525 92.7339 12.6917 91.8672 13.025C91.0172 13.3583 90.2755 13.825 89.6422 14.425C89.0255 15.025 88.5422 15.7417 88.1922 16.575C87.8589 17.3917 87.6922 18.2833 87.6922 19.25C87.6922 20.2 87.8589 21.0917 88.1922 21.925C88.5422 22.7417 89.0255 23.4583 89.6422 24.075C90.2755 24.675 91.0172 25.1417 91.8672 25.475C92.7172 25.8083 93.6422 25.975 94.6422 25.975C95.5755 25.975 96.4672 25.8333 97.3172 25.55C98.1839 25.25 98.9839 24.7583 99.7172 24.075L101.142 25.975C100.276 26.7083 99.2589 27.2667 98.0922 27.65C96.9422 28.0167 95.7505 28.2 94.5172 28.2ZM98.7422 25.65V19.15H101.142V25.975L98.7422 25.65ZM105.579 28V14.75H107.879V18.35L107.654 17.45C108.02 16.5333 108.637 15.8333 109.504 15.35C110.37 14.8667 111.437 14.625 112.704 14.625V16.95C112.604 16.9333 112.504 16.925 112.404 16.925C112.32 16.925 112.237 16.925 112.154 16.925C110.87 16.925 109.854 17.3083 109.104 18.075C108.354 18.8417 107.979 19.95 107.979 21.4V28H105.579ZM121.44 28.15C120.023 28.15 118.773 27.8583 117.69 27.275C116.623 26.6917 115.79 25.8917 115.19 24.875C114.606 23.8583 114.315 22.6917 114.315 21.375C114.315 20.0583 114.598 18.8917 115.165 17.875C115.748 16.8583 116.54 16.0667 117.54 15.5C118.556 14.9167 119.698 14.625 120.965 14.625C122.248 14.625 123.381 14.9083 124.365 15.475C125.348 16.0417 126.115 16.8417 126.665 17.875C127.231 18.8917 127.515 20.0833 127.515 21.45C127.515 21.55 127.506 21.6667 127.49 21.8C127.49 21.9333 127.481 22.0583 127.465 22.175H116.19V20.45H126.215L125.24 21.05C125.256 20.2 125.081 19.4417 124.715 18.775C124.348 18.1083 123.84 17.5917 123.19 17.225C122.556 16.8417 121.815 16.65 120.965 16.65C120.131 16.65 119.39 16.8417 118.74 17.225C118.09 17.5917 117.581 18.1167 117.215 18.8C116.848 19.4667 116.665 20.2333 116.665 21.1V21.5C116.665 22.3833 116.865 23.175 117.265 23.875C117.681 24.5583 118.256 25.0917 118.99 25.475C119.723 25.8583 120.565 26.05 121.515 26.05C122.298 26.05 123.006 25.9167 123.64 25.65C124.29 25.3833 124.856 24.9833 125.34 24.45L126.665 26C126.065 26.7 125.315 27.2333 124.415 27.6C123.531 27.9667 122.54 28.15 121.44 28.15ZM136.747 28.15C135.331 28.15 134.081 27.8583 132.997 27.275C131.931 26.6917 131.097 25.8917 130.497 24.875C129.914 23.8583 129.622 22.6917 129.622 21.375C129.622 20.0583 129.906 18.8917 130.472 17.875C131.056 16.8583 131.847 16.0667 132.847 15.5C133.864 14.9167 135.006 14.625 136.272 14.625C137.556 14.625 138.689 14.9083 139.672 15.475C140.656 16.0417 141.422 16.8417 141.972 17.875C142.539 18.8917 142.822 20.0833 142.822 21.45C142.822 21.55 142.814 21.6667 142.797 21.8C142.797 21.9333 142.789 22.0583 142.772 22.175H131.497V20.45H141.522L140.547 21.05C140.564 20.2 140.389 19.4417 140.022 18.775C139.656 18.1083 139.147 17.5917 138.497 17.225C137.864 16.8417 137.122 16.65 136.272 16.65C135.439 16.65 134.697 16.8417 134.047 17.225C133.397 17.5917 132.889 18.1167 132.522 18.8C132.156 19.4667 131.972 20.2333 131.972 21.1V21.5C131.972 22.3833 132.172 23.175 132.572 23.875C132.989 24.5583 133.564 25.0917 134.297 25.475C135.031 25.8583 135.872 26.05 136.822 26.05C137.606 26.05 138.314 25.9167 138.947 25.65C139.597 25.3833 140.164 24.9833 140.647 24.45L141.972 26C141.372 26.7 140.622 27.2333 139.722 27.6C138.839 27.9667 137.847 28.15 136.747 28.15ZM153.23 14.625C154.313 14.625 155.263 14.8333 156.08 15.25C156.913 15.6667 157.563 16.3 158.03 17.15C158.497 18 158.73 19.075 158.73 20.375V28H156.33V20.65C156.33 19.3667 156.013 18.4 155.38 17.75C154.763 17.1 153.888 16.775 152.755 16.775C151.905 16.775 151.163 16.9417 150.53 17.275C149.897 17.6083 149.405 18.1 149.055 18.75C148.722 19.4 148.555 20.2083 148.555 21.175V28H146.155V14.75H148.455V18.325L148.08 17.375C148.513 16.5083 149.18 15.8333 150.08 15.35C150.98 14.8667 152.03 14.625 153.23 14.625ZM163.171 28V14.75H165.471V18.35L165.246 17.45C165.613 16.5333 166.23 15.8333 167.096 15.35C167.963 14.8667 169.03 14.625 170.296 14.625V16.95C170.196 16.9333 170.096 16.925 169.996 16.925C169.913 16.925 169.83 16.925 169.746 16.925C168.463 16.925 167.446 17.3083 166.696 18.075C165.946 18.8417 165.571 19.95 165.571 21.4V28H163.171ZM178.807 28.15C177.474 28.15 176.291 27.8583 175.257 27.275C174.224 26.6917 173.407 25.8917 172.807 24.875C172.207 23.8417 171.907 22.675 171.907 21.375C171.907 20.0583 172.207 18.8917 172.807 17.875C173.407 16.8583 174.224 16.0667 175.257 15.5C176.291 14.9167 177.474 14.625 178.807 14.625C180.124 14.625 181.299 14.9167 182.332 15.5C183.382 16.0667 184.199 16.8583 184.782 17.875C185.382 18.875 185.682 20.0417 185.682 21.375C185.682 22.6917 185.382 23.8583 184.782 24.875C184.199 25.8917 183.382 26.6917 182.332 27.275C181.299 27.8583 180.124 28.15 178.807 28.15ZM178.807 26.05C179.657 26.05 180.416 25.8583 181.082 25.475C181.766 25.0917 182.299 24.55 182.682 23.85C183.066 23.1333 183.257 22.3083 183.257 21.375C183.257 20.425 183.066 19.6083 182.682 18.925C182.299 18.225 181.766 17.6833 181.082 17.3C180.416 16.9167 179.657 16.725 178.807 16.725C177.957 16.725 177.199 16.9167 176.532 17.3C175.866 17.6833 175.332 18.225 174.932 18.925C174.532 19.6083 174.332 20.425 174.332 21.375C174.332 22.3083 174.532 23.1333 174.932 23.85C175.332 24.55 175.866 25.0917 176.532 25.475C177.199 25.8583 177.957 26.05 178.807 26.05ZM197.104 28V25.2L196.979 24.675V19.9C196.979 18.8833 196.679 18.1 196.079 17.55C195.496 16.9833 194.613 16.7 193.429 16.7C192.646 16.7 191.879 16.8333 191.129 17.1C190.379 17.35 189.746 17.6917 189.229 18.125L188.229 16.325C188.913 15.775 189.729 15.3583 190.679 15.075C191.646 14.775 192.654 14.625 193.704 14.625C195.521 14.625 196.921 15.0667 197.904 15.95C198.888 16.8333 199.379 18.1833 199.379 20V28H197.104ZM192.754 28.15C191.771 28.15 190.904 27.9833 190.154 27.65C189.421 27.3167 188.854 26.8583 188.454 26.275C188.054 25.675 187.854 25 187.854 24.25C187.854 23.5333 188.021 22.8833 188.354 22.3C188.704 21.7167 189.263 21.25 190.029 20.9C190.813 20.55 191.863 20.375 193.179 20.375H197.379V22.1H193.279C192.079 22.1 191.271 22.3 190.854 22.7C190.438 23.1 190.229 23.5833 190.229 24.15C190.229 24.8 190.488 25.325 191.004 25.725C191.521 26.1083 192.238 26.3 193.154 26.3C194.054 26.3 194.838 26.1 195.504 25.7C196.188 25.3 196.679 24.7167 196.979 23.95L197.454 25.6C197.138 26.3833 196.579 27.0083 195.779 27.475C194.979 27.925 193.971 28.15 192.754 28.15ZM209.296 28.15C208.013 28.15 206.863 27.8667 205.846 27.3C204.846 26.7333 204.054 25.9417 203.471 24.925C202.888 23.9083 202.596 22.725 202.596 21.375C202.596 20.025 202.888 18.85 203.471 17.85C204.054 16.8333 204.846 16.0417 205.846 15.475C206.863 14.9083 208.013 14.625 209.296 14.625C210.413 14.625 211.421 14.875 212.321 15.375C213.221 15.875 213.938 16.625 214.471 17.625C215.021 18.625 215.296 19.875 215.296 21.375C215.296 22.875 215.029 24.125 214.496 25.125C213.979 26.125 213.271 26.8833 212.371 27.4C211.471 27.9 210.446 28.15 209.296 28.15ZM209.496 26.05C210.329 26.05 211.079 25.8583 211.746 25.475C212.429 25.0917 212.963 24.55 213.346 23.85C213.746 23.1333 213.946 22.3083 213.946 21.375C213.946 20.425 213.746 19.6083 213.346 18.925C212.963 18.225 212.429 17.6833 211.746 17.3C211.079 16.9167 210.329 16.725 209.496 16.725C208.646 16.725 207.888 16.9167 207.221 17.3C206.554 17.6833 206.021 18.225 205.621 18.925C205.221 19.6083 205.021 20.425 205.021 21.375C205.021 22.3083 205.221 23.1333 205.621 23.85C206.021 24.55 206.554 25.0917 207.221 25.475C207.888 25.8583 208.646 26.05 209.496 26.05ZM214.021 28V24.425L214.171 21.35L213.921 18.275V9.45H216.321V28H214.021ZM233.026 28.2C231.692 28.2 230.417 28 229.201 27.6C227.984 27.1833 227.026 26.65 226.326 26L227.251 24.05C227.917 24.6333 228.767 25.1167 229.801 25.5C230.834 25.8833 231.909 26.075 233.026 26.075C234.042 26.075 234.867 25.9583 235.501 25.725C236.134 25.4917 236.601 25.175 236.901 24.775C237.201 24.3583 237.351 23.8917 237.351 23.375C237.351 22.775 237.151 22.2917 236.751 21.925C236.367 21.5583 235.859 21.2667 235.226 21.05C234.609 20.8167 233.926 20.6167 233.176 20.45C232.426 20.2833 231.667 20.0917 230.901 19.875C230.151 19.6417 229.459 19.35 228.826 19C228.209 18.65 227.709 18.1833 227.326 17.6C226.942 17 226.751 16.2333 226.751 15.3C226.751 14.4 226.984 13.575 227.451 12.825C227.934 12.0583 228.667 11.45 229.651 11C230.651 10.5333 231.917 10.3 233.451 10.3C234.467 10.3 235.476 10.4333 236.476 10.7C237.476 10.9667 238.342 11.35 239.076 11.85L238.251 13.85C237.501 13.35 236.709 12.9917 235.876 12.775C235.042 12.5417 234.234 12.425 233.451 12.425C232.467 12.425 231.659 12.55 231.026 12.8C230.392 13.05 229.926 13.3833 229.626 13.8C229.342 14.2167 229.201 14.6833 229.201 15.2C229.201 15.8167 229.392 16.3083 229.776 16.675C230.176 17.0417 230.684 17.3333 231.301 17.55C231.934 17.7667 232.626 17.9667 233.376 18.15C234.126 18.3167 234.876 18.5083 235.626 18.725C236.392 18.9417 237.084 19.225 237.701 19.575C238.334 19.925 238.842 20.3917 239.226 20.975C239.609 21.5583 239.801 22.3083 239.801 23.225C239.801 24.1083 239.559 24.9333 239.076 25.7C238.592 26.45 237.842 27.0583 236.826 27.525C235.826 27.975 234.559 28.2 233.026 28.2ZM247.653 28.15C246.32 28.15 245.286 27.7917 244.553 27.075C243.82 26.3583 243.453 25.3333 243.453 24V11.85H245.853V23.9C245.853 24.6167 246.028 25.1667 246.378 25.55C246.745 25.9333 247.261 26.125 247.928 26.125C248.678 26.125 249.303 25.9167 249.803 25.5L250.553 27.225C250.186 27.5417 249.745 27.775 249.228 27.925C248.728 28.075 248.203 28.15 247.653 28.15ZM241.203 16.725V14.75H249.653V16.725H241.203ZM254.274 28.15C253.807 28.15 253.407 27.9917 253.074 27.675C252.74 27.3417 252.574 26.925 252.574 26.425C252.574 25.925 252.74 25.5167 253.074 25.2C253.407 24.8833 253.807 24.725 254.274 24.725C254.724 24.725 255.107 24.8833 255.424 25.2C255.757 25.5167 255.924 25.925 255.924 26.425C255.924 26.925 255.757 27.3417 255.424 27.675C255.107 27.9917 254.724 28.15 254.274 28.15Z" fill="#143771"/>
</svg>
