<svg width="220" height="39" viewBox="0 0 220 39" fill="none" xmlns="http://www.w3.org/2000/svg">
<path d="M15.3581 9.47426L16.3317 11.2187C17.2102 12.7929 16.8575 14.858 15.4738 16.2417C15.4738 16.2417 15.4738 16.2417 15.4738 16.2417C15.4737 16.2418 13.7955 17.9202 16.8385 20.9632C19.8809 24.0056 21.5592 22.3287 21.5601 22.3279C21.5601 22.3279 21.5601 22.3279 21.5601 22.3279C22.9438 20.9442 25.0089 20.5915 26.5831 21.4701L28.3275 22.4436C30.7046 23.7702 30.9853 27.1039 28.8959 29.1933C27.6404 30.4488 26.1024 31.4257 24.4021 31.4902C21.5399 31.5987 16.6792 30.8743 11.8033 25.9984C6.92745 21.1226 6.20308 16.2618 6.31159 13.3996C6.37604 11.6994 7.35296 10.1614 8.60847 8.90585C10.6979 6.81642 14.0315 7.09716 15.3581 9.47426Z" stroke="#143771" stroke-width="2.25" stroke-linecap="round"/>
<path d="M64.1768 18.275V20.25H59.6268V24.725H57.5268V20.25H52.9768V18.275H57.5268V13.775H59.6268V18.275H64.1768ZM70.0602 25.825H79.0352V28H66.4602V26.3L73.5852 19.425C75.4352 17.625 75.7852 16.525 75.7852 15.425C75.7852 13.625 74.5102 12.525 72.0602 12.525C70.1852 12.525 68.6602 13.125 67.5852 14.425L65.8852 12.95C67.2352 11.275 69.5602 10.3 72.2852 10.3C75.9352 10.3 78.2852 12.175 78.2852 15.175C78.2852 16.875 77.7852 18.4 75.4102 20.675L70.0602 25.825ZM95.8518 21.55V23.7H92.5268V28H90.1018V23.7H80.3768V21.95L89.3268 10.5H92.0268L83.4518 21.55H90.1768V17.75H92.5268V21.55H95.8518ZM109.064 17.475C114.289 17.475 116.339 19.65 116.339 22.75C116.339 25.775 114.189 28.2 109.714 28.2C107.239 28.2 104.789 27.4 103.289 26.075L104.439 24.1C105.614 25.2 107.564 25.975 109.689 25.975C112.339 25.975 113.839 24.75 113.839 22.85C113.839 20.875 112.589 19.65 108.539 19.65H104.564L105.489 10.5H115.364V12.675H107.589L107.114 17.475H109.064ZM125.97 17.375C129.445 17.375 131.97 19.45 131.97 22.675C131.97 26.05 129.245 28.2 125.77 28.2C121.07 28.2 118.42 25.05 118.42 19.475C118.42 13.5 121.795 10.3 126.695 10.3C128.345 10.3 129.92 10.625 131.045 11.325L130.095 13.275C129.195 12.675 127.995 12.45 126.745 12.45C123.195 12.45 120.92 14.675 120.92 19.05C120.92 19.25 120.92 19.45 120.945 19.675C121.945 18.175 123.795 17.375 125.97 17.375ZM125.67 26.175C127.945 26.175 129.545 24.85 129.545 22.775C129.545 20.725 127.995 19.4 125.545 19.4C123.17 19.4 121.52 20.875 121.52 22.8C121.52 24.6 122.97 26.175 125.67 26.175ZM151.263 18.825C153.263 19.6 154.363 21.05 154.363 23.05C154.363 26.225 151.663 28.2 147.388 28.2C143.138 28.2 140.463 26.225 140.463 23.05C140.463 21.05 141.563 19.575 143.538 18.825C141.938 18.075 141.088 16.775 141.088 15.05C141.088 12.125 143.613 10.3 147.388 10.3C151.188 10.3 153.738 12.125 153.738 15.05C153.738 16.775 152.863 18.075 151.263 18.825ZM147.388 12.325C145.038 12.325 143.563 13.4 143.563 15.15C143.563 16.875 144.988 17.95 147.388 17.95C149.813 17.95 151.288 16.875 151.288 15.15C151.288 13.4 149.738 12.325 147.388 12.325ZM147.388 26.175C150.163 26.175 151.863 24.95 151.863 22.975C151.863 21.05 150.163 19.85 147.388 19.85C144.613 19.85 142.963 21.05 142.963 22.975C142.963 24.95 144.613 26.175 147.388 26.175ZM162.327 10.3C167.027 10.3 169.677 13.45 169.677 19.025C169.677 25 166.302 28.2 161.402 28.2C159.752 28.2 158.177 27.875 157.052 27.175L158.002 25.225C158.927 25.825 160.102 26.05 161.377 26.05C164.927 26.05 167.177 23.825 167.177 19.45V18.825C166.152 20.35 164.302 21.125 162.127 21.125C158.652 21.125 156.152 19.05 156.152 15.825C156.152 12.45 158.852 10.3 162.327 10.3ZM162.552 19.1C164.952 19.1 166.602 17.625 166.602 15.7C166.602 13.9 165.152 12.325 162.427 12.325C160.152 12.325 158.577 13.65 158.577 15.725C158.577 17.775 160.102 19.1 162.552 19.1ZM177.796 10.5H184.221V28H181.746V12.675H177.796V10.5ZM203.274 21.55V23.7H199.949V28H197.524V23.7H187.799V21.95L196.749 10.5H199.449L190.874 21.55H197.599V17.75H199.949V21.55H203.274ZM212.322 17.375C215.797 17.375 218.322 19.45 218.322 22.675C218.322 26.05 215.597 28.2 212.122 28.2C207.422 28.2 204.772 25.05 204.772 19.475C204.772 13.5 208.147 10.3 213.047 10.3C214.697 10.3 216.272 10.625 217.397 11.325L216.447 13.275C215.547 12.675 214.347 12.45 213.097 12.45C209.547 12.45 207.272 14.675 207.272 19.05C207.272 19.25 207.272 19.45 207.297 19.675C208.297 18.175 210.147 17.375 212.322 17.375ZM212.022 26.175C214.297 26.175 215.897 24.85 215.897 22.775C215.897 20.725 214.347 19.4 211.897 19.4C209.522 19.4 207.872 20.875 207.872 22.8C207.872 24.6 209.322 26.175 212.022 26.175Z" fill="#143771"/>
</svg>
