<svg width="310" height="39" viewBox="0 0 310 39" fill="none" xmlns="http://www.w3.org/2000/svg">
<path d="M3.30176 19.5C3.30176 13.8431 3.30176 11.0147 5.05912 9.25736C6.81648 7.5 9.6449 7.5 15.3018 7.5H21.3018C26.9586 7.5 29.787 7.5 31.5444 9.25736C33.3018 11.0147 33.3018 13.8431 33.3018 19.5C33.3018 25.1569 33.3018 27.9853 31.5444 29.7426C29.787 31.5 26.9586 31.5 21.3018 31.5H15.3018C9.6449 31.5 6.81648 31.5 5.05912 29.7426C3.30176 27.9853 3.30176 25.1569 3.30176 19.5Z" stroke="#143771" stroke-width="2.25"/>
<path d="M9.30176 13.5L12.5401 16.1986C15.2951 18.4944 16.6725 19.6423 18.3018 19.6423C19.931 19.6423 21.3085 18.4944 24.0634 16.1986L27.3018 13.5" stroke="#143771" stroke-width="2.25" stroke-linecap="round"/>
<path d="M54.7768 12.2C53.8518 12.2 53.1518 11.525 53.1518 10.65C53.1518 9.775 53.8518 9.075 54.7768 9.075C55.7018 9.075 56.4018 9.75 56.4018 10.6C56.4018 11.5 55.7268 12.2 54.7768 12.2ZM53.5768 28V14.75H55.9768V28H53.5768ZM67.6342 14.625C70.8592 14.625 73.1342 16.475 73.1342 20.375V28H70.7342V20.65C70.7342 18.05 69.4342 16.775 67.1592 16.775C64.6092 16.775 62.9592 18.3 62.9592 21.175V28H60.5592V14.75H62.8592V16.75C63.8342 15.4 65.5342 14.625 67.6342 14.625ZM82.4258 11.275C81.0008 11.275 80.2758 12.075 80.2758 13.6V14.75H84.1258V16.725H80.3258V28H77.9258V16.725H75.6758V14.75H77.9258V13.575C77.9258 11 79.4758 9.3 82.3008 9.3C83.3258 9.3 84.3258 9.55 85.0008 10.075L84.2758 11.9C83.7758 11.525 83.1258 11.275 82.4258 11.275ZM91.8689 28.15C87.8939 28.15 84.9689 25.325 84.9689 21.375C84.9689 17.425 87.8939 14.625 91.8689 14.625C95.8439 14.625 98.7439 17.425 98.7439 21.375C98.7439 25.325 95.8439 28.15 91.8689 28.15ZM91.8689 26.05C94.4189 26.05 96.3189 24.2 96.3189 21.375C96.3189 18.55 94.4189 16.725 91.8689 16.725C89.3189 16.725 87.3939 18.55 87.3939 21.375C87.3939 24.2 89.3189 26.05 91.8689 26.05ZM112.788 10.325C119.638 10.325 124.438 14.825 124.438 21.3C124.438 25.55 122.813 28.15 119.988 28.15C118.388 28.15 117.288 27.3 116.988 25.775C115.988 27.325 114.338 28.15 112.238 28.15C108.688 28.15 106.113 25.45 106.113 21.725C106.113 18 108.688 15.35 112.238 15.35C114.163 15.35 115.788 16.075 116.813 17.475V15.45H118.988V24.45C118.988 25.775 119.638 26.25 120.413 26.25C121.888 26.25 122.738 24.45 122.738 21.325C122.738 15.725 118.688 11.975 112.788 11.975C106.813 11.975 102.813 15.975 102.813 21.65C102.813 27.375 106.763 31.375 112.688 31.375C114.213 31.375 116.038 31.05 117.513 30.275L118.063 31.875C116.538 32.65 114.463 33.05 112.688 33.05C105.738 33.05 100.988 28.275 100.988 21.65C100.988 15.05 105.788 10.325 112.788 10.325ZM112.588 26.2C115.013 26.2 116.863 24.5 116.863 21.725C116.863 18.95 115.013 17.275 112.588 17.275C110.088 17.275 108.338 19 108.338 21.725C108.338 24.425 110.088 26.2 112.588 26.2ZM138.318 14.75H140.593V26.2C140.593 30.875 138.218 33 133.718 33C131.293 33 128.843 32.325 127.393 31.025L128.543 29.175C129.768 30.225 131.693 30.9 133.643 30.9C136.768 30.9 138.193 29.45 138.193 26.45V25.4C137.043 26.775 135.318 27.45 133.418 27.45C129.593 27.45 126.693 24.85 126.693 21.025C126.693 17.2 129.593 14.625 133.418 14.625C135.393 14.625 137.193 15.35 138.318 16.8V14.75ZM133.693 25.35C136.343 25.35 138.243 23.575 138.243 21.025C138.243 18.45 136.343 16.725 133.693 16.725C131.018 16.725 129.118 18.45 129.118 21.025C129.118 23.575 131.018 25.35 133.693 25.35ZM157.153 21.45C157.153 21.65 157.128 21.95 157.103 22.175H146.353C146.653 24.5 148.528 26.05 151.153 26.05C152.703 26.05 154.003 25.525 154.978 24.45L156.303 26C155.103 27.4 153.278 28.15 151.078 28.15C146.803 28.15 143.953 25.325 143.953 21.375C143.953 17.45 146.778 14.625 150.603 14.625C154.428 14.625 157.153 17.375 157.153 21.45ZM150.603 16.65C148.303 16.65 146.603 18.2 146.353 20.45H154.853C154.603 18.225 152.928 16.65 150.603 16.65ZM167.186 25.5L167.936 27.225C167.211 27.85 166.111 28.15 165.036 28.15C162.361 28.15 160.836 26.675 160.836 24V16.725H158.586V14.75H160.836V11.85H163.236V14.75H167.036V16.725H163.236V23.9C163.236 25.325 163.986 26.125 165.311 26.125C166.011 26.125 166.686 25.9 167.186 25.5ZM172.038 12.2C171.113 12.2 170.413 11.525 170.413 10.65C170.413 9.775 171.113 9.075 172.038 9.075C172.963 9.075 173.663 9.75 173.663 10.6C173.663 11.5 172.988 12.2 172.038 12.2ZM170.838 28V14.75H173.238V28H170.838ZM184.895 14.625C188.12 14.625 190.395 16.475 190.395 20.375V28H187.995V20.65C187.995 18.05 186.695 16.775 184.42 16.775C181.87 16.775 180.22 18.3 180.22 21.175V28H177.82V14.75H180.12V16.75C181.095 15.4 182.795 14.625 184.895 14.625ZM201.537 25.5L202.287 27.225C201.562 27.85 200.462 28.15 199.387 28.15C196.712 28.15 195.187 26.675 195.187 24V16.725H192.937V14.75H195.187V11.85H197.587V14.75H201.387V16.725H197.587V23.9C197.587 25.325 198.337 26.125 199.662 26.125C200.362 26.125 201.037 25.9 201.537 25.5ZM210.424 28.15C206.449 28.15 203.524 25.325 203.524 21.375C203.524 17.425 206.449 14.625 210.424 14.625C214.399 14.625 217.299 17.425 217.299 21.375C217.299 25.325 214.399 28.15 210.424 28.15ZM210.424 26.05C212.974 26.05 214.874 24.2 214.874 21.375C214.874 18.55 212.974 16.725 210.424 16.725C207.874 16.725 205.949 18.55 205.949 21.375C205.949 24.2 207.874 26.05 210.424 26.05ZM230.568 14.75H232.968V28H230.693V26C229.718 27.375 228.068 28.15 226.193 28.15C222.768 28.15 220.493 26.275 220.493 22.375V14.75H222.893V22.1C222.893 24.7 224.193 26 226.468 26C228.968 26 230.568 24.45 230.568 21.6V14.75ZM243.312 28.15C239.237 28.15 236.312 25.325 236.312 21.375C236.312 17.425 239.237 14.625 243.312 14.625C245.687 14.625 247.662 15.6 248.712 17.45L246.887 18.625C246.037 17.325 244.737 16.725 243.287 16.725C240.687 16.725 238.737 18.55 238.737 21.375C238.737 24.25 240.687 26.05 243.287 26.05C244.737 26.05 246.037 25.45 246.887 24.15L248.712 25.3C247.662 27.15 245.687 28.15 243.312 28.15ZM258.723 14.625C261.948 14.625 264.223 16.475 264.223 20.375V28H261.823V20.65C261.823 18.05 260.523 16.775 258.248 16.775C255.698 16.775 254.048 18.3 254.048 21.175V28H251.648V9.45H254.048V16.625C255.048 15.35 256.698 14.625 258.723 14.625ZM269.24 28.15C268.315 28.15 267.54 27.425 267.54 26.425C267.54 25.425 268.315 24.725 269.24 24.725C270.14 24.725 270.89 25.425 270.89 26.425C270.89 27.425 270.14 28.15 269.24 28.15ZM291.399 14.75H293.549L288.599 28H286.299L282.474 17.95L278.599 28H276.299L271.374 14.75H273.649L277.499 25.3L281.499 14.75H283.524L287.449 25.35L291.399 14.75ZM307.593 21.45C307.593 21.65 307.568 21.95 307.543 22.175H296.793C297.093 24.5 298.968 26.05 301.593 26.05C303.143 26.05 304.443 25.525 305.418 24.45L306.743 26C305.543 27.4 303.718 28.15 301.518 28.15C297.243 28.15 294.393 25.325 294.393 21.375C294.393 17.45 297.218 14.625 301.043 14.625C304.868 14.625 307.593 17.375 307.593 21.45ZM301.043 16.65C298.743 16.65 297.043 18.2 296.793 20.45H305.293C305.043 18.225 303.368 16.65 301.043 16.65Z" fill="#143771"/>
</svg>
