<svg width="99" height="20" viewBox="0 0 99 20" fill="none" xmlns="http://www.w3.org/2000/svg">
<g clip-path="url(#clip0_127_523)">
<path d="M26.694 15.3649H24.8451V4.63509H26.694V15.3649ZM35.5653 15.3649H32.8465L27.5794 10.9186C27.2169 10.6042 27.0356 10.3165 27.0356 10.0549C27.0356 9.80364 27.2169 9.52077 27.5794 9.20632L32.8465 4.6344H35.5653L29.2417 10.1016L35.5653 15.3649Z" fill="white"/>
<path d="M50.1396 9.8826C50.1396 11.4645 49.6372 12.7731 48.6322 13.8105C47.6273 14.8472 46.348 15.3656 44.7944 15.3656H41.8272C40.2838 15.3656 39.0072 14.8472 37.9975 13.8105C36.9878 12.7738 36.4827 11.4645 36.4827 9.8826C36.4827 8.31171 36.9824 7.04429 37.9819 6.08102C38.9814 5.11775 40.2634 4.63577 41.8272 4.63577H44.7944C46.3691 4.63577 47.6531 5.11775 48.6478 6.08102C49.6419 7.04429 50.1396 8.31102 50.1396 9.8826ZM48.3063 10.0391C48.3063 9.00241 47.9777 8.1538 47.3197 7.49399C46.6617 6.83419 45.8204 6.50395 44.7951 6.50395H41.8272C40.812 6.50395 39.9755 6.83351 39.3182 7.49399C38.6602 8.1538 38.3316 9.00241 38.3316 10.0391C38.3316 11.0656 38.6602 11.8984 39.3182 12.5369C39.9762 13.1754 40.812 13.4954 41.8272 13.4954H44.7944C45.8198 13.4954 46.661 13.1761 47.319 12.5369C47.977 11.8984 48.3063 11.0663 48.3063 10.0391Z" fill="white"/>
<path d="M53.8063 15.3649H51.9573V4.63507H53.8063V15.3649Z" fill="white"/>
<path d="M58.188 15.3649H56.339V4.63509H58.188V15.3649ZM67.0593 15.3649H64.3405L59.0734 10.9186C58.7108 10.6042 58.5295 10.3165 58.5295 10.0549C58.5295 9.80364 58.7108 9.52077 59.0734 9.20632L64.3405 4.6344H67.0593L60.7356 10.1016L67.0593 15.3649Z" fill="white"/>
<path d="M81.6329 9.8826C81.6329 11.4645 81.1304 12.7731 80.1255 13.8105C79.1206 14.8472 77.8413 15.3656 76.2877 15.3656H73.3204C71.777 15.3656 70.5005 14.8472 69.4908 13.8105C68.4811 12.7738 67.9759 11.4645 67.9759 9.8826C67.9759 8.31171 68.4757 7.04429 69.4752 6.08102C70.4747 5.11775 71.7567 4.63577 73.3204 4.63577H76.2877C77.8623 4.63577 79.1464 5.11775 80.1411 6.08102C81.1359 7.04429 81.6329 8.31102 81.6329 9.8826ZM79.7996 10.0391C79.7996 9.00241 79.4709 8.1538 78.813 7.49399C78.155 6.83419 77.3137 6.50395 76.2884 6.50395H73.3211C72.306 6.50395 71.4694 6.83351 70.8122 7.49399C70.1542 8.1538 69.8256 9.00241 69.8256 10.0391C69.8256 11.0656 70.1542 11.8984 70.8122 12.5369C71.4701 13.1754 72.306 13.4954 73.3211 13.4954H76.2884C77.3137 13.4954 78.155 13.1761 78.813 12.5369C79.4709 11.8984 79.7996 11.0663 79.7996 10.0391Z" fill="white"/>
<path d="M96.6418 5.53038C96.5691 5.24751 96.4347 5.00652 96.2378 4.80742L96.2357 4.80536C96.1217 4.6955 95.9709 4.6344 95.8134 4.6344H95.2899C95.1038 4.6344 94.9239 4.70855 94.7969 4.84655C94.6421 5.01545 94.4907 5.24339 94.3427 5.5297L90.7846 12.552L87.2422 5.5297C87.0867 5.22898 86.9272 4.99348 86.7642 4.82184C86.6501 4.70168 86.4933 4.6344 86.3283 4.6344H85.7335C85.5922 4.6344 85.4571 4.69001 85.3559 4.78957L85.3539 4.79163C85.1414 5.00103 85.0042 5.24751 84.9424 5.53038L82.5693 15.3649H84.6661L86.1857 7.87093L89.7437 14.7834C89.7498 14.7951 89.7559 14.8067 89.762 14.8184C89.9474 15.1603 90.3107 15.3642 90.6964 15.3642H90.8817C91.2722 15.3642 91.6422 15.1569 91.8215 14.8067C91.8228 14.804 91.8242 14.8012 91.8256 14.7992L95.3836 7.87093L96.9188 15.3649H99L96.6418 5.53038Z" fill="white"/>
<path d="M12.0423 10L18.6844 2.701C19.5861 1.71026 18.9621 0.0707175 17.6319 0.00205973C17.6007 0.000686577 17.5681 0 17.5355 0H1.87883C0.841296 0 0 0.850669 0 1.89976V18.1009C0 19.15 0.841296 20.0007 1.87883 20.0007H17.5362C17.5688 20.0007 17.6007 20 17.6326 19.9979C18.9628 19.93 19.5868 18.2897 18.6851 17.299L12.0423 10Z" fill="white"/>
<path d="M7.15815 2.50876L15.9072 5.75352L13.8722 7.98971L7.15815 2.50876Z" fill="white"/>
<path d="M7.15815 17.4912L15.9072 14.2472L13.8722 12.0103L7.15815 17.4912Z" fill="white"/>
<path d="M18.8195 8.56521L2.7371 0.212306C1.48636 -0.43651 0 0.481444 0 1.90197V18.0983C0 19.5196 1.48636 20.4375 2.7371 19.788L18.8195 11.4358C19.9752 10.8357 19.9752 9.16527 18.8195 8.56521Z" fill="#BE1E2D"/>
</g>
<defs>
<clipPath id="clip0_127_523">
<rect width="99" height="20" fill="white"/>
</clipPath>
</defs>
</svg>
