<svg width="40" height="40" viewBox="0 0 40 40" fill="none" xmlns="http://www.w3.org/2000/svg">
<circle cx="20" cy="20" r="20" fill="white"/>
<path d="M13.1707 17.4634H12.7805V17.8537V26.8293V27.2195H13.1707H15.122H15.5122V26.8293V17.8537V17.4634H15.122H13.1707ZM21.3659 17.607V18.1996L21.9102 17.9655L22.249 17.8199C22.2491 17.8199 22.2491 17.8198 22.2492 17.8198C22.797 17.5858 23.378 17.4392 23.9713 17.3853L23.9713 17.3853C25.9124 17.2091 27.6098 18.7347 27.6098 20.6868V27.4146C27.6098 27.4664 27.5892 27.516 27.5526 27.5526C27.516 27.5892 27.4664 27.6098 27.4146 27.6098H24.2927C24.2409 27.6098 24.1913 27.5892 24.1547 27.5526C24.1181 27.516 24.0976 27.4664 24.0976 27.4146V21.9512C24.0976 21.589 23.9537 21.2416 23.6975 20.9854C23.4414 20.7293 23.094 20.5854 22.7317 20.5854C22.3695 20.5854 22.022 20.7293 21.7659 20.9854C21.5098 21.2416 21.3659 21.589 21.3659 21.9512V27.4146C21.3659 27.4664 21.3453 27.516 21.3087 27.5526C21.2721 27.5892 21.2225 27.6098 21.1707 27.6098H18.0488C17.997 27.6098 17.9474 27.5892 17.9108 27.5526C17.8742 27.516 17.8537 27.4664 17.8537 27.4146V17.2683C17.8537 17.2165 17.8742 17.1669 17.9108 17.1303C17.9474 17.0937 17.997 17.0732 18.0488 17.0732H21.1707C21.2225 17.0732 21.2721 17.0937 21.3087 17.1303C21.3453 17.1669 21.3659 17.2165 21.3659 17.2683V17.607ZM18.6341 17.4634H18.2439V17.8537V26.8293V27.2195H18.6341H20.5854H20.9756V26.8293V21.9512C20.9756 21.4855 21.1606 21.0388 21.49 20.7095C21.8193 20.3801 22.266 20.1951 22.7317 20.1951C23.1975 20.1951 23.6441 20.3801 23.9735 20.7095C24.3028 21.0388 24.4878 21.4855 24.4878 21.9512V26.8293V27.2195H24.878H26.8293H27.2195V26.8293V20.6868C27.2195 18.9682 25.723 17.6178 24.0076 17.7741C23.4551 17.8244 22.914 17.9608 22.4038 18.1784L22.403 18.1787L21.2479 18.6743L21.2477 18.6744C21.218 18.6872 21.1856 18.6923 21.1534 18.6895L21.1189 19.0782L21.1534 18.6895C21.1212 18.6866 21.0903 18.6758 21.0633 18.658C21.0363 18.6402 21.0142 18.616 20.9989 18.5875C20.9836 18.559 20.9756 18.5272 20.9756 18.4949V18.4944V17.8537V17.4634H20.5854H18.6341ZM12.9046 12.9046C13.2339 12.5753 13.6806 12.3902 14.1463 12.3902C14.6121 12.3902 15.0588 12.5753 15.3881 12.9046C15.7174 13.2339 15.9024 13.6806 15.9024 14.1463C15.9024 14.6121 15.7174 15.0588 15.3881 15.3881C15.0588 15.7174 14.6121 15.9024 14.1463 15.9024C13.6806 15.9024 13.2339 15.7174 12.9046 15.3881C12.5753 15.0588 12.3902 14.6121 12.3902 14.1463C12.3902 13.6806 12.5753 13.2339 12.9046 12.9046ZM13.1805 13.1805C12.9244 13.4367 12.7805 13.7841 12.7805 14.1463C12.7805 14.5086 12.9244 14.856 13.1805 15.1121C13.4367 15.3683 13.7841 15.5122 14.1463 15.5122C14.5086 15.5122 14.856 15.3683 15.1121 15.1121C15.3683 14.856 15.5122 14.5086 15.5122 14.1463C15.5122 13.7841 15.3683 13.4367 15.1121 13.1805C14.856 12.9244 14.5086 12.7805 14.1463 12.7805C13.7841 12.7805 13.4367 12.9244 13.1805 13.1805ZM12.3902 17.2683C12.3902 17.2165 12.4108 17.1669 12.4474 17.1303C12.484 17.0937 12.5336 17.0732 12.5854 17.0732H15.7073C15.7591 17.0732 15.8087 17.0937 15.8453 17.1303C15.8819 17.1669 15.9024 17.2165 15.9024 17.2683V27.4146C15.9024 27.4664 15.8819 27.516 15.8453 27.5526C15.8087 27.5892 15.7591 27.6098 15.7073 27.6098H12.5854C12.5336 27.6098 12.484 27.5892 12.4474 27.5526C12.4108 27.516 12.3902 27.4664 12.3902 27.4146V17.2683Z" fill="#143771" stroke="#143771" stroke-width="0.780488"/>
</svg>
