<svg width="405" height="283" viewBox="0 0 405 283" fill="none" xmlns="http://www.w3.org/2000/svg">
<g clip-path="url(#clip0_18_223)">
<path d="M330.249 177.342H70.5111C68.738 177.34 67.0382 176.635 65.7845 175.381C64.5307 174.127 63.8255 172.427 63.8235 170.654V10.4947C63.8249 9.19579 64.3416 7.95044 65.2601 7.03192C66.1786 6.1134 67.4239 5.59671 68.7228 5.59521H331.952C333.274 5.59672 334.541 6.12233 335.475 7.05673C336.409 7.99113 336.935 9.25802 336.936 10.5795V170.654C336.934 172.427 336.229 174.127 334.976 175.381C333.722 176.635 332.022 177.34 330.249 177.342Z" fill="#F2F2F2"/>
<path d="M320.774 167.871H78.7049C75.1564 167.871 72.2695 165.168 72.2695 161.845V22.376C72.2695 19.9117 74.4087 17.9067 77.0382 17.9067H322.361C325.034 17.9067 327.209 19.9448 327.209 22.4496V161.845C327.209 165.168 324.322 167.871 320.774 167.871Z" fill="white"/>
<path d="M336.844 10.1123H63.7297V6.70755C63.7323 4.9286 64.4404 3.22331 65.6987 1.96579C66.957 0.708275 68.6627 0.00122557 70.4417 -0.000244141H330.132C331.911 0.001217 333.616 0.708264 334.875 1.96578C336.133 3.2233 336.841 4.9286 336.844 6.70755V10.1123Z" fill="#CCCCCC"/>
<path d="M75.9275 6.80205C76.8863 6.80205 77.6636 6.02477 77.6636 5.06594C77.6636 4.10712 76.8863 3.32983 75.9275 3.32983C74.9687 3.32983 74.1914 4.10712 74.1914 5.06594C74.1914 6.02477 74.9687 6.80205 75.9275 6.80205Z" fill="white"/>
<path d="M82.5174 6.80205C83.4762 6.80205 84.2535 6.02477 84.2535 5.06594C84.2535 4.10712 83.4762 3.32983 82.5174 3.32983C81.5585 3.32983 80.7812 4.10712 80.7812 5.06594C80.7812 6.02477 81.5585 6.80205 82.5174 6.80205Z" fill="white"/>
<path d="M89.1072 6.80205C90.066 6.80205 90.8433 6.02477 90.8433 5.06594C90.8433 4.10712 90.066 3.32983 89.1072 3.32983C88.1484 3.32983 87.3711 4.10712 87.3711 5.06594C87.3711 6.02477 88.1484 6.80205 89.1072 6.80205Z" fill="white"/>
<path d="M294.129 144.48H106.537C104.656 144.478 102.853 143.73 101.523 142.4C100.194 141.071 99.4457 139.268 99.4436 137.387V46.9408C99.4452 45.5344 100.005 44.186 100.999 43.1915C101.993 42.197 103.342 41.6376 104.748 41.636H295.833C297.262 41.6376 298.632 42.206 299.642 43.2164C300.652 44.2267 301.221 45.5966 301.222 47.0255V137.387C301.22 139.268 300.472 141.071 299.142 142.4C297.813 143.73 296.01 144.478 294.129 144.48ZM104.748 42.4466C103.557 42.448 102.414 42.9219 101.572 43.7644C100.729 44.607 100.256 45.7493 100.254 46.9408V137.387C100.256 139.053 100.919 140.65 102.096 141.827C103.274 143.005 104.871 143.668 106.537 143.669H294.129C295.795 143.668 297.392 143.005 298.569 141.827C299.747 140.65 300.41 139.053 300.412 137.387V47.0255C300.41 45.8116 299.927 44.6477 299.069 43.7893C298.211 42.9309 297.047 42.448 295.833 42.4466H104.748Z" fill="#CCCCCC"/>
<path d="M113.022 137.387H287.644C289.364 137.387 291.014 136.704 292.23 135.488C293.446 134.272 294.129 132.622 294.129 130.902V55.2926C294.129 53.5727 293.446 51.9232 292.23 50.707C291.014 49.4909 289.364 48.8076 287.644 48.8076H113.022C111.302 48.8076 109.652 49.4909 108.436 50.707C107.22 51.9232 106.537 53.5727 106.537 55.2926V130.902C106.537 132.622 107.22 134.272 108.436 135.488C109.652 136.704 111.302 137.387 113.022 137.387Z" fill="#F2F2F2"/>
<path d="M132.849 70.8056C134.864 70.8056 136.497 69.1724 136.497 67.1578C136.497 65.1432 134.864 63.51 132.849 63.51C130.834 63.51 129.201 65.1432 129.201 67.1578C129.201 69.1724 130.834 70.8056 132.849 70.8056Z" fill="#CCCCCC"/>
<path d="M132.849 84.5856C134.864 84.5856 136.497 82.9524 136.497 80.9378C136.497 78.9232 134.864 77.29 132.849 77.29C130.834 77.29 129.201 78.9232 129.201 80.9378C129.201 82.9524 130.834 84.5856 132.849 84.5856Z" fill="#CCCCCC"/>
<path d="M132.849 98.3664C134.864 98.3664 136.497 96.7332 136.497 94.7186C136.497 92.704 134.864 91.0708 132.849 91.0708C130.834 91.0708 129.201 92.704 129.201 94.7186C129.201 96.7332 130.834 98.3664 132.849 98.3664Z" fill="#CCCCCC"/>
<path d="M132.849 112.147C134.864 112.147 136.497 110.514 136.497 108.499C136.497 106.485 134.864 104.852 132.849 104.852C130.834 104.852 129.201 106.485 129.201 108.499C129.201 110.514 130.834 112.147 132.849 112.147Z" fill="#CCCCCC"/>
<path d="M271.059 67.5628H151.088C150.98 67.5628 150.877 67.5201 150.801 67.4441C150.725 67.3681 150.682 67.265 150.682 67.1575C150.682 67.05 150.725 66.9469 150.801 66.8709C150.877 66.7949 150.98 66.7522 151.088 66.7522H271.059C271.167 66.7522 271.27 66.7949 271.346 66.8709C271.422 66.9469 271.465 67.05 271.465 67.1575C271.465 67.265 271.422 67.3681 271.346 67.4441C271.27 67.5201 271.167 67.5628 271.059 67.5628Z" fill="#CCCCCC"/>
<path d="M271.059 81.3433H151.088C150.98 81.3433 150.877 81.3006 150.801 81.2246C150.725 81.1486 150.682 81.0455 150.682 80.938C150.682 80.8305 150.725 80.7274 150.801 80.6514C150.877 80.5754 150.98 80.5327 151.088 80.5327H271.059C271.167 80.5327 271.27 80.5754 271.346 80.6514C271.422 80.7274 271.465 80.8305 271.465 80.938C271.465 81.0455 271.422 81.1486 271.346 81.2246C271.27 81.3006 271.167 81.3433 271.059 81.3433Z" fill="#CCCCCC"/>
<path d="M271.059 95.1241H151.088C150.98 95.1241 150.877 95.0814 150.801 95.0054C150.725 94.9294 150.682 94.8263 150.682 94.7188C150.682 94.6113 150.725 94.5082 150.801 94.4322C150.877 94.3562 150.98 94.3135 151.088 94.3135H271.059C271.167 94.3135 271.27 94.3562 271.346 94.4322C271.422 94.5082 271.465 94.6113 271.465 94.7188C271.465 94.8263 271.422 94.9294 271.346 95.0054C271.27 95.0814 271.167 95.1241 271.059 95.1241Z" fill="#CCCCCC"/>
<path d="M271.059 108.905H151.088C150.98 108.905 150.877 108.862 150.801 108.786C150.725 108.71 150.682 108.607 150.682 108.499C150.682 108.392 150.725 108.289 150.801 108.213C150.877 108.137 150.98 108.094 151.088 108.094H271.059C271.167 108.094 271.27 108.137 271.346 108.213C271.422 108.289 271.465 108.392 271.465 108.499C271.465 108.607 271.422 108.71 271.346 108.786C271.27 108.862 271.167 108.905 271.059 108.905Z" fill="#CCCCCC"/>
<path d="M173.785 122.685H162.031C161.494 122.684 160.979 122.471 160.599 122.091C160.219 121.711 160.005 121.196 160.005 120.658V109.715C160.005 109.178 160.219 108.663 160.599 108.283C160.979 107.903 161.494 107.689 162.031 107.688H173.785C174.322 107.689 174.838 107.903 175.217 108.283C175.597 108.663 175.811 109.178 175.812 109.715V120.658C175.811 121.196 175.597 121.711 175.217 122.091C174.838 122.471 174.322 122.684 173.785 122.685Z" fill="#C01C25"/>
<path d="M200.13 122.685H188.376C187.839 122.684 187.324 122.471 186.944 122.091C186.564 121.711 186.35 121.196 186.35 120.658V95.9345C186.35 95.3972 186.564 94.8821 186.944 94.5022C187.324 94.1223 187.839 93.9086 188.376 93.908H200.13C200.668 93.9086 201.183 94.1223 201.563 94.5022C201.943 94.8821 202.156 95.3972 202.157 95.9345V120.658C202.156 121.196 201.943 121.711 201.563 122.091C201.183 122.471 200.668 122.684 200.13 122.685Z" fill="#C01C25"/>
<path d="M226.881 122.685H215.127C214.59 122.684 214.074 122.471 213.695 122.091C213.315 121.711 213.101 121.196 213.1 120.658V82.154C213.101 81.6167 213.315 81.1016 213.695 80.7217C214.074 80.3418 214.59 80.1281 215.127 80.1274H226.881C227.418 80.1281 227.933 80.3418 228.313 80.7217C228.693 81.1016 228.907 81.6167 228.907 82.154V120.658C228.907 121.196 228.693 121.711 228.313 122.091C227.933 122.471 227.418 122.684 226.881 122.685Z" fill="#C01C25"/>
<path d="M254.442 122.685H242.688C242.15 122.684 241.635 122.471 241.255 122.091C240.875 121.711 240.662 121.196 240.661 120.658V68.7787C240.662 68.2415 240.875 67.7264 241.255 67.3464C241.635 66.9665 242.15 66.7528 242.688 66.7522H254.442C254.979 66.7528 255.494 66.9665 255.874 67.3464C256.254 67.7264 256.468 68.2415 256.468 68.7787V120.658C256.468 121.196 256.254 121.711 255.874 122.091C255.494 122.471 254.979 122.684 254.442 122.685Z" fill="#C01C25"/>
<path d="M271.059 122.685H151.088C150.98 122.685 150.877 122.642 150.801 122.566C150.725 122.49 150.682 122.387 150.682 122.279C150.682 122.172 150.725 122.069 150.801 121.993C150.877 121.917 150.98 121.874 151.088 121.874H271.059C271.167 121.874 271.27 121.917 271.346 121.993C271.422 122.069 271.465 122.172 271.465 122.279C271.465 122.387 271.422 122.49 271.346 122.566C271.27 122.642 271.167 122.685 271.059 122.685Z" fill="#3F3D56"/>
<path d="M323.769 198.294C324.097 197.797 324.531 197.378 325.038 197.067C325.546 196.755 326.116 196.559 326.708 196.491C327.3 196.424 327.9 196.487 328.465 196.677C329.03 196.866 329.546 197.177 329.978 197.588L342.849 190.945L342.048 198.429L329.949 203.59C329.211 204.269 328.249 204.654 327.246 204.672C326.243 204.69 325.269 204.34 324.507 203.687C323.745 203.034 323.249 202.125 323.113 201.131C322.977 200.137 323.21 199.128 323.769 198.294Z" fill="#FFB8B8"/>
<path d="M334.843 201.086C334.551 200.856 334.336 200.544 334.226 200.189L333.202 196.882C333.092 196.524 333.095 196.14 333.21 195.784C333.325 195.427 333.547 195.114 333.845 194.888L344.277 187.008L355.575 166.049C356.048 165.439 356.637 164.929 357.307 164.547C357.978 164.165 358.717 163.919 359.482 163.822C360.248 163.726 361.025 163.781 361.769 163.985C362.513 164.189 363.21 164.538 363.82 165.011C364.429 165.484 364.939 166.073 365.321 166.743C365.703 167.414 365.949 168.153 366.046 168.919C366.142 169.684 366.087 170.461 365.883 171.205C365.679 171.95 365.33 172.646 364.857 173.256L358.429 186.822C356.479 190.939 353.099 194.208 348.919 196.021L336.694 201.323C336.459 201.425 336.205 201.476 335.949 201.474C335.693 201.471 335.44 201.414 335.207 201.307C335.077 201.248 334.955 201.174 334.843 201.086Z" fill="#3F3D56"/>
<path d="M365.141 157.301C370.639 157.301 375.095 152.845 375.095 147.347C375.095 141.849 370.639 137.392 365.141 137.392C359.643 137.392 355.186 141.849 355.186 147.347C355.186 152.845 359.643 157.301 365.141 157.301Z" fill="#FFB8B8"/>
<path d="M361.102 277.935L356.134 277.935L353.77 258.769L361.104 258.769L361.102 277.935Z" fill="#FFB8B8"/>
<path d="M352.584 276.515H362.167V282.549H346.55C346.55 281.756 346.706 280.972 347.01 280.24C347.313 279.508 347.757 278.842 348.318 278.282C348.878 277.722 349.543 277.277 350.275 276.974C351.007 276.671 351.792 276.515 352.584 276.515Z" fill="#2F2E41"/>
<path d="M377.314 277.936L372.346 277.936L369.982 258.769L377.317 258.77L377.314 277.936Z" fill="#FFB8B8"/>
<path d="M368.796 276.516H378.379V282.549H362.762C362.762 281.757 362.919 280.972 363.222 280.24C363.525 279.508 363.969 278.843 364.53 278.283C365.09 277.723 365.755 277.278 366.487 276.975C367.219 276.672 368.004 276.516 368.796 276.516Z" fill="#2F2E41"/>
<path d="M377.678 273.073L371.855 273.073C371.454 273.072 371.064 272.94 370.746 272.696C370.428 272.452 370.199 272.11 370.094 271.723L361.712 240.636C361.699 240.587 361.668 240.545 361.626 240.518C361.584 240.491 361.533 240.48 361.484 240.488C361.434 240.496 361.39 240.523 361.358 240.562C361.327 240.601 361.311 240.65 361.314 240.7L363.007 270.184C363.022 270.444 362.981 270.705 362.886 270.949C362.792 271.192 362.646 271.412 362.459 271.594C362.272 271.777 362.048 271.917 361.803 272.005C361.557 272.093 361.295 272.127 361.035 272.106L354.49 271.56C354.071 271.524 353.676 271.345 353.374 271.052C353.072 270.759 352.879 270.371 352.83 269.953L346.867 208.044L349.174 209.429L370.789 205.759L379.486 271.008C379.52 271.266 379.499 271.528 379.424 271.776C379.349 272.025 379.221 272.255 379.05 272.45C378.879 272.646 378.668 272.803 378.431 272.91C378.194 273.017 377.938 273.073 377.678 273.073Z" fill="#2F2E41"/>
<path d="M354.096 214.578C351.712 214.559 349.376 213.902 347.331 212.674C347.016 212.487 346.765 212.21 346.61 211.878C346.456 211.546 346.405 211.175 346.465 210.814C347.225 206.159 351.201 182.277 354.818 169.258C356.291 163.955 359.548 161.099 364.499 160.77C371.742 160.294 378.179 165.96 378.849 173.415C380.031 186.567 375.228 205.252 373.108 212.676C373.026 212.962 372.875 213.224 372.668 213.439C372.46 213.654 372.204 213.814 371.92 213.906C371.637 213.999 371.335 214.02 371.041 213.968C370.747 213.917 370.471 213.794 370.235 213.61L365.914 210.249C365.648 210.046 365.32 209.942 364.985 209.956C364.651 209.97 364.332 210.101 364.084 210.325C360.442 213.574 356.982 214.578 354.096 214.578Z" fill="#3F3D56"/>
<path opacity="0.2" d="M368.387 179.851L372.035 195.253L366.765 208.223L370.413 195.659L368.387 179.851Z" fill="black"/>
<path d="M370.821 155.532C371.706 155.549 372.586 155.39 373.41 155.064C373.772 154.924 374.149 154.81 374.51 154.67C377.705 153.436 379.809 150.034 379.885 146.61C379.96 143.186 378.187 139.863 375.555 137.673C372.922 135.483 369.512 134.358 366.097 134.098C362.419 133.818 358.277 134.75 356.221 137.814C355.674 138.629 355.292 139.618 355.616 140.603C355.713 140.9 355.886 141.166 356.119 141.375C357.036 142.192 357.952 141.578 358.887 141.524C360.173 141.449 361.329 142.49 361.744 143.71C362.159 144.929 361.976 146.272 361.641 147.516C361.385 148.265 361.224 149.042 361.161 149.83C361.134 150.226 361.209 150.621 361.377 150.98C361.546 151.338 361.803 151.648 362.125 151.879C362.929 152.365 363.984 152.084 364.789 151.599C365.593 151.114 366.288 150.44 367.156 150.083C368.025 149.726 369.192 149.805 369.697 150.596C369.858 150.884 369.967 151.198 370.019 151.524C370.472 153.589 370.368 153.467 370.821 155.532Z" fill="#2F2E41"/>
<path d="M355.391 264.031L293.056 242.322C291.986 241.948 291.109 241.165 290.615 240.145C290.122 239.125 290.054 237.951 290.425 236.881L306.624 190.368C306.898 189.584 307.471 188.941 308.219 188.58C308.966 188.219 309.826 188.169 310.61 188.441L375.053 210.883C375.85 211.162 376.504 211.745 376.871 212.506C377.239 213.266 377.29 214.141 377.013 214.939L360.832 261.4C360.458 262.47 359.676 263.348 358.655 263.841C357.635 264.334 356.461 264.402 355.391 264.031Z" fill="#E6E6E6"/>
<path d="M298.375 239.649L352.883 258.632C353.921 258.994 355.06 258.928 356.05 258.45C357.039 257.971 357.798 257.119 358.16 256.081L371.24 218.523C371.601 217.485 371.536 216.346 371.057 215.356C370.579 214.366 369.727 213.607 368.689 213.246L314.182 194.263C313.144 193.902 312.005 193.967 311.015 194.446C310.025 194.924 309.266 195.776 308.905 196.814L295.825 234.373C295.646 234.887 295.57 235.431 295.601 235.974C295.632 236.517 295.77 237.049 296.007 237.539C296.244 238.029 296.575 238.468 296.982 238.83C297.388 239.192 297.862 239.47 298.375 239.649Z" fill="white"/>
<path d="M312.063 213.261L309.364 212.321C309.218 212.27 309.097 212.163 309.03 212.023C308.963 211.884 308.953 211.723 309.004 211.577L309.944 208.877C309.995 208.731 310.102 208.611 310.242 208.543C310.382 208.476 310.542 208.466 310.689 208.517L313.388 209.457C313.534 209.508 313.654 209.616 313.722 209.755C313.789 209.895 313.799 210.055 313.748 210.202L312.808 212.901C312.757 213.048 312.65 213.168 312.51 213.235C312.37 213.303 312.21 213.312 312.063 213.261Z" fill="#C01C25"/>
<path d="M309.628 220.255L306.928 219.315C306.782 219.264 306.662 219.157 306.594 219.017C306.527 218.878 306.517 218.717 306.568 218.57L307.508 215.871C307.56 215.725 307.667 215.605 307.806 215.537C307.946 215.47 308.106 215.46 308.253 215.511L310.952 216.451C311.099 216.502 311.219 216.609 311.286 216.749C311.354 216.889 311.363 217.049 311.312 217.196L310.372 219.895C310.321 220.041 310.214 220.162 310.074 220.229C309.935 220.297 309.774 220.306 309.628 220.255Z" fill="#3F3D56"/>
<path d="M307.192 227.249L304.492 226.309C304.346 226.258 304.226 226.151 304.158 226.011C304.091 225.872 304.081 225.711 304.132 225.565L305.072 222.865C305.123 222.719 305.231 222.599 305.37 222.531C305.51 222.464 305.67 222.454 305.817 222.505L308.516 223.445C308.663 223.497 308.783 223.604 308.85 223.743C308.918 223.883 308.927 224.043 308.876 224.19L307.936 226.889C307.885 227.036 307.778 227.156 307.638 227.223C307.499 227.291 307.338 227.3 307.192 227.249Z" fill="#CCCCCC"/>
<path d="M330.203 218.065L317.196 213.535C317.123 213.51 317.056 213.471 316.999 213.42C316.941 213.369 316.894 213.307 316.861 213.238C316.827 213.168 316.808 213.093 316.803 213.016C316.799 212.94 316.809 212.863 316.835 212.79C316.86 212.717 316.899 212.651 316.951 212.593C317.002 212.536 317.064 212.489 317.133 212.456C317.202 212.422 317.278 212.403 317.354 212.399C317.431 212.394 317.508 212.405 317.581 212.431L330.587 216.96C330.66 216.985 330.727 217.025 330.784 217.076C330.842 217.127 330.889 217.189 330.922 217.258C330.956 217.327 330.976 217.402 330.98 217.479C330.985 217.556 330.974 217.633 330.949 217.705C330.923 217.778 330.884 217.845 330.833 217.902C330.781 217.96 330.719 218.006 330.65 218.04C330.581 218.073 330.506 218.093 330.429 218.097C330.352 218.101 330.275 218.09 330.203 218.065Z" fill="#CCCCCC"/>
<path d="M327.767 225.059L314.76 220.529C314.614 220.478 314.493 220.371 314.426 220.231C314.358 220.092 314.349 219.931 314.4 219.785C314.451 219.638 314.558 219.518 314.698 219.451C314.838 219.383 314.998 219.374 315.145 219.425L328.151 223.955C328.224 223.98 328.291 224.019 328.348 224.07C328.406 224.121 328.453 224.183 328.486 224.252C328.52 224.321 328.539 224.396 328.544 224.473C328.548 224.55 328.538 224.627 328.512 224.699C328.487 224.772 328.448 224.839 328.396 224.896C328.345 224.954 328.283 225 328.214 225.034C328.145 225.067 328.07 225.087 327.993 225.091C327.916 225.095 327.839 225.084 327.767 225.059Z" fill="#CCCCCC"/>
<path d="M325.331 232.053L312.324 227.523C312.178 227.472 312.058 227.365 311.99 227.226C311.923 227.086 311.913 226.925 311.964 226.779C312.015 226.632 312.122 226.512 312.262 226.445C312.402 226.377 312.562 226.368 312.709 226.419L325.715 230.949C325.862 231 325.982 231.107 326.05 231.246C326.117 231.386 326.126 231.547 326.075 231.693C326.024 231.84 325.917 231.96 325.778 232.027C325.638 232.095 325.477 232.104 325.331 232.053Z" fill="#CCCCCC"/>
<path d="M359.944 235.842C360.038 235.615 360.128 235.384 360.21 235.148C361.279 232.079 361.085 228.71 359.67 225.784C358.255 222.857 355.736 220.612 352.666 219.543L348.391 231.819L359.944 235.842Z" fill="#C01C25"/>
<path d="M347.148 232.566L351.423 220.29C349.164 219.503 346.724 219.395 344.404 219.978C342.084 220.562 339.985 221.811 338.366 223.573C336.748 225.335 335.681 227.532 335.296 229.893C334.911 232.254 335.226 234.677 336.201 236.861C337.176 239.046 338.77 240.897 340.785 242.187C342.8 243.477 345.148 244.148 347.54 244.119C349.933 244.091 352.264 243.362 354.247 242.024C356.23 240.686 357.779 238.797 358.701 236.589L347.148 232.566Z" fill="#3F3D56"/>
<path d="M362.453 214.957C362.405 214.363 362.487 213.766 362.694 213.207C362.902 212.649 363.229 212.142 363.653 211.724C364.078 211.306 364.589 210.985 365.15 210.786C365.711 210.586 366.31 210.512 366.903 210.569L372.931 197.399L376.92 203.782L370.584 215.31C370.422 216.3 369.904 217.196 369.125 217.829C368.347 218.463 367.364 218.788 366.362 218.745C365.359 218.701 364.408 218.292 363.688 217.594C362.967 216.895 362.528 215.957 362.453 214.957Z" fill="#FFB8B8"/>
<path d="M372.889 210.319C372.518 210.319 372.156 210.206 371.85 209.995L369.004 208.024C368.696 207.81 368.462 207.507 368.332 207.155C368.202 206.803 368.184 206.42 368.279 206.058L371.625 193.42L367.58 169.955C367.576 169.183 367.723 168.418 368.015 167.703C368.306 166.988 368.736 166.337 369.279 165.788C369.822 165.239 370.468 164.802 371.18 164.503C371.891 164.204 372.655 164.048 373.427 164.045C374.2 164.041 374.965 164.189 375.68 164.482C376.394 164.774 377.045 165.204 377.593 165.748C378.141 166.291 378.577 166.938 378.875 167.65C379.174 168.362 379.329 169.126 379.331 169.899L382.646 184.54C383.652 188.983 383.01 193.641 380.84 197.647L374.492 209.364C374.37 209.589 374.202 209.786 373.999 209.942C373.795 210.098 373.561 210.209 373.312 210.269C373.174 210.302 373.032 210.319 372.889 210.319Z" fill="#3F3D56"/>
<path d="M403.736 282.776H326.727C326.62 282.776 326.517 282.734 326.441 282.658C326.365 282.582 326.322 282.479 326.322 282.371C326.322 282.264 326.365 282.161 326.441 282.085C326.517 282.009 326.62 281.966 326.727 281.966H403.736C403.844 281.966 403.947 282.009 404.023 282.085C404.099 282.161 404.141 282.264 404.141 282.371C404.141 282.479 404.099 282.582 404.023 282.658C403.947 282.734 403.844 282.776 403.736 282.776Z" fill="#CCCCCC"/>
<path d="M199.68 277.734L204.649 277.733L207.012 258.567H199.679L199.68 277.734Z" fill="#A0616A"/>
<path d="M198.412 276.111L208.198 276.111C209.017 276.111 209.828 276.272 210.585 276.586C211.341 276.899 212.029 277.358 212.608 277.938C213.187 278.517 213.646 279.204 213.96 279.961C214.273 280.717 214.434 281.528 214.434 282.347V282.55L198.412 282.551L198.412 276.111Z" fill="#2F2E41"/>
<path d="M179.819 277.734L184.789 277.733L187.152 258.567H179.819L179.819 277.734Z" fill="#A0616A"/>
<path d="M178.552 276.111L188.337 276.111C189.156 276.111 189.968 276.272 190.724 276.586C191.481 276.899 192.169 277.358 192.748 277.938C193.327 278.517 193.786 279.204 194.099 279.961C194.413 280.717 194.574 281.528 194.574 282.347V282.55L178.552 282.551L178.552 276.111Z" fill="#2F2E41"/>
<path d="M200.671 145.043C206.169 145.043 210.626 140.586 210.626 135.088C210.626 129.59 206.169 125.133 200.671 125.133C195.173 125.133 190.716 129.59 190.716 135.088C190.716 140.586 195.173 145.043 200.671 145.043Z" fill="#A0616A"/>
<path d="M207.365 273.597H198.144C197.903 273.597 197.664 273.549 197.441 273.456C197.218 273.363 197.016 273.226 196.847 273.055C196.677 272.883 196.543 272.679 196.453 272.455C196.363 272.232 196.318 271.992 196.321 271.751L196.856 227.965C196.858 227.809 196.801 227.659 196.695 227.545C196.59 227.43 196.444 227.361 196.289 227.35C196.134 227.34 195.981 227.389 195.861 227.489C195.741 227.588 195.664 227.729 195.645 227.884L190.278 271.993C190.224 272.435 190.01 272.843 189.677 273.138C189.343 273.433 188.913 273.596 188.468 273.597H179.158C178.907 273.597 178.658 273.545 178.427 273.444C178.197 273.343 177.99 273.196 177.819 273.011C177.648 272.827 177.518 272.609 177.435 272.371C177.353 272.134 177.32 271.882 177.34 271.631L183.487 192.97L183.654 192.952L213.092 189.773L209.187 271.86C209.165 272.328 208.964 272.77 208.625 273.093C208.285 273.417 207.834 273.597 207.365 273.597Z" fill="#2F2E41"/>
<path d="M183.846 197.799C183.373 197.798 182.919 197.613 182.58 197.284C182.241 196.954 182.043 196.505 182.028 196.033C181.868 191.059 181.592 173.849 184.793 161.215C185.667 157.763 187.628 154.684 190.386 152.433C193.145 150.182 196.555 148.879 200.111 148.715C203.612 148.524 207.084 149.44 210.034 151.333C212.985 153.227 215.265 156.001 216.55 159.263C221.931 172.923 227.014 189.761 220.676 192.402C212.37 195.863 190.471 197.405 183.958 197.796C183.92 197.798 183.883 197.799 183.846 197.799Z" fill="#3F3D56"/>
<path d="M221.893 125.027C222.049 125.187 222.218 125.336 222.398 125.47L221.353 145.543L217.006 147.768L219.507 154.767L227.585 151.576C228.237 151.318 228.789 150.855 229.156 150.257C229.523 149.659 229.687 148.959 229.622 148.26L227.506 125.49C228.198 124.973 228.717 124.258 228.993 123.439C229.269 122.621 229.289 121.737 229.051 120.907C228.813 120.076 228.327 119.338 227.659 118.79C226.991 118.242 226.172 117.911 225.311 117.84C224.45 117.769 223.588 117.961 222.839 118.392C222.09 118.823 221.491 119.472 221.119 120.252C220.748 121.032 220.624 121.907 220.762 122.76C220.9 123.613 221.294 124.403 221.893 125.027Z" fill="#A0616A"/>
<path d="M221.435 146.29L224.493 154.98C224.58 155.227 224.612 155.49 224.589 155.751C224.565 156.012 224.485 156.265 224.355 156.492C224.224 156.72 224.046 156.916 223.833 157.069C223.62 157.221 223.376 157.326 223.119 157.376L214.103 159.122C212.835 159.56 211.446 159.477 210.239 158.892C209.032 158.308 208.107 157.268 207.665 156.002C207.224 154.735 207.302 153.346 207.884 152.137C208.466 150.929 209.503 150 210.768 149.556L218.864 145.282C219.095 145.16 219.351 145.089 219.613 145.075C219.874 145.06 220.136 145.102 220.38 145.198C220.624 145.293 220.845 145.44 221.027 145.629C221.209 145.817 221.348 146.043 221.435 146.29Z" fill="#3F3D56"/>
<path d="M178.773 125.027C178.617 125.187 178.448 125.336 178.268 125.47L179.313 145.543L183.66 147.768L181.159 154.767L173.081 151.576C172.429 151.318 171.877 150.855 171.51 150.257C171.143 149.659 170.979 148.959 171.044 148.26L173.16 125.49C172.468 124.973 171.949 124.258 171.673 123.439C171.397 122.621 171.377 121.737 171.615 120.907C171.853 120.076 172.339 119.338 173.007 118.79C173.675 118.242 174.494 117.911 175.355 117.84C176.216 117.769 177.078 117.961 177.827 118.392C178.576 118.823 179.176 119.472 179.547 120.252C179.918 121.032 180.043 121.907 179.904 122.76C179.766 123.613 179.372 124.403 178.773 125.027Z" fill="#A0616A"/>
<path d="M180.286 145.198C180.53 145.102 180.792 145.06 181.053 145.075C181.315 145.089 181.57 145.16 181.802 145.283L189.898 149.556C191.163 150.001 192.2 150.929 192.782 152.137C193.363 153.346 193.442 154.735 193.001 156.002C192.559 157.268 191.634 158.308 190.427 158.893C189.22 159.477 187.83 159.56 186.563 159.122L177.547 157.376C177.289 157.326 177.046 157.221 176.833 157.069C176.619 156.916 176.442 156.72 176.311 156.492C176.181 156.265 176.101 156.012 176.077 155.751C176.053 155.49 176.086 155.227 176.173 154.98L179.231 146.29C179.318 146.043 179.457 145.817 179.639 145.629C179.821 145.44 180.042 145.293 180.286 145.198Z" fill="#3F3D56"/>
<path d="M204.537 136.785C204.485 135.515 204.804 134.258 205.455 133.166C206.105 132.074 207.06 131.196 208.202 130.637C211.228 129.075 213.129 125.743 212.296 122.701C211.229 118.806 205.929 116.28 201.634 117.62C200.472 118.033 199.351 118.554 198.286 119.176L195.48 120.68C194.281 121.28 193.125 121.963 192.021 122.722C190.366 123.941 189.07 125.582 188.266 127.474C187.463 129.365 187.182 131.438 187.453 133.475C188.005 137.434 190.598 141.065 194.148 143.551C195.505 144.566 197.073 145.263 198.735 145.591C200.436 145.871 202.33 145.552 203.574 144.494C205.518 142.841 205.317 140.072 204.689 137.76C204.606 137.441 204.555 137.114 204.537 136.785Z" fill="#2F2E41"/>
<path d="M238.37 282.776H161.361C161.253 282.776 161.15 282.734 161.074 282.658C160.998 282.582 160.956 282.479 160.956 282.371C160.956 282.264 160.998 282.161 161.074 282.085C161.15 282.009 161.253 281.966 161.361 281.966H238.37C238.477 281.966 238.58 282.009 238.656 282.085C238.732 282.161 238.775 282.264 238.775 282.371C238.775 282.479 238.732 282.582 238.656 282.658C238.58 282.734 238.477 282.776 238.37 282.776Z" fill="#CCCCCC"/>
<path d="M112.687 208.837L49.144 234.905C48.0527 235.352 46.829 235.347 45.7413 234.892C44.6535 234.437 43.7907 233.569 43.342 232.479L23.8904 185.065C23.5634 184.265 23.567 183.369 23.9002 182.572C24.2334 181.775 24.8692 181.143 25.6679 180.814L91.3593 153.864C92.1726 153.532 93.0846 153.535 93.8953 153.874C94.706 154.213 95.349 154.86 95.6835 155.673L115.114 203.035C115.56 204.126 115.555 205.35 115.1 206.438C114.645 207.525 113.778 208.388 112.687 208.837Z" fill="#E6E6E6"/>
<path d="M51.446 229.154L107.01 206.359C108.068 205.925 108.911 205.089 109.352 204.034C109.793 202.979 109.797 201.791 109.363 200.733L93.6559 162.447C93.441 161.923 93.125 161.446 92.7259 161.044C92.3268 160.643 91.8526 160.323 91.3301 160.105C90.8077 159.886 90.2473 159.773 89.681 159.771C89.1147 159.769 88.5536 159.879 88.0297 160.094L32.4656 182.889C31.9416 183.104 31.4652 183.42 31.0634 183.819C30.6616 184.218 30.3424 184.692 30.1239 185.214C29.9054 185.737 29.792 186.297 29.7901 186.864C29.7881 187.43 29.8978 187.991 30.1127 188.515L45.8197 226.802C46.0347 227.326 46.3507 227.802 46.7497 228.204C47.1488 228.606 47.6231 228.925 48.1456 229.143C48.668 229.362 49.2284 229.475 49.7946 229.477C50.3609 229.479 50.9221 229.369 51.446 229.154Z" fill="white"/>
<path d="M93.3484 172.888L92.5315 173.223L92.5874 173.359L93.4043 173.024L93.3484 172.888Z" fill="#E6E6E6"/>
<path d="M90.9372 174.036L89.2869 174.713L89.2311 174.577L90.8814 173.9L90.9372 174.036ZM87.6366 175.39L85.9863 176.067L85.9305 175.931L87.5807 175.254L87.6366 175.39ZM84.336 176.744L82.6857 177.421L82.6298 177.285L84.2801 176.608L84.336 176.744ZM81.0353 178.098L79.385 178.775L79.3292 178.639L80.9795 177.962L81.0353 178.098ZM77.7347 179.452L76.0844 180.129L76.0285 179.993L77.6788 179.316L77.7347 179.452ZM74.434 180.806L72.7837 181.483L72.7279 181.347L74.3782 180.67L74.434 180.806ZM71.1334 182.161L69.4831 182.838L69.4272 182.701L71.0776 182.024L71.1334 182.161ZM67.8328 183.515L66.1825 184.192L66.1266 184.055L67.7769 183.378L67.8328 183.515ZM64.5321 184.869L62.8818 185.546L62.826 185.41L64.4763 184.733L64.5321 184.869ZM61.2315 186.223L59.5812 186.9L59.5253 186.764L61.1756 186.087L61.2315 186.223ZM57.9308 187.577L56.2805 188.254L56.2247 188.118L57.875 187.441L57.9308 187.577ZM54.6302 188.931L52.9799 189.608L52.924 189.472L54.5743 188.795L54.6302 188.931ZM51.3295 190.285L49.6792 190.962L49.6234 190.826L51.2737 190.149L51.3295 190.285ZM48.0289 191.639L46.3786 192.316L46.3227 192.18L47.9731 191.503L48.0289 191.639ZM44.7283 192.993L43.078 193.67L43.0221 193.534L44.6724 192.857L44.7283 192.993ZM41.4276 194.347L39.7773 195.024L39.7214 194.888L41.3718 194.211L41.4276 194.347Z" fill="#E6E6E6"/>
<path d="M38.0715 195.565L37.2546 195.9L37.3105 196.036L38.1274 195.701L38.0715 195.565Z" fill="#E6E6E6"/>
<path d="M71.7217 196.553L70.9048 196.888L70.9606 197.025L71.7775 196.689L71.7217 196.553Z" fill="#E6E6E6"/>
<path d="M69.3343 197.692L67.7085 198.359L67.6527 198.222L69.2785 197.555L69.3343 197.692ZM66.0827 199.026L64.4569 199.693L64.4011 199.556L66.0269 198.889L66.0827 199.026ZM62.8311 200.359L61.2053 201.026L61.1494 200.89L62.7753 200.223L62.8311 200.359ZM59.5795 201.693L57.9537 202.36L57.8978 202.224L59.5236 201.557L59.5795 201.693ZM56.3279 203.027L54.702 203.694L54.6462 203.558L56.272 202.891L56.3279 203.027ZM53.0762 204.361L51.4504 205.028L51.3946 204.892L53.0204 204.225L53.0762 204.361ZM49.8246 205.695L48.1988 206.362L48.143 206.226L49.7688 205.559L49.8246 205.695ZM46.573 207.029L44.9472 207.696L44.8914 207.56L46.5172 206.893L46.573 207.029Z" fill="#E6E6E6"/>
<path d="M43.2659 208.227L42.449 208.562L42.5048 208.699L43.3217 208.364L43.2659 208.227Z" fill="#E6E6E6"/>
<path d="M58.2493 209.079L57.4324 209.414L57.4882 209.55L58.3051 209.215L58.2493 209.079Z" fill="#E6E6E6"/>
<path d="M55.8157 210.237L54.143 210.923L54.0871 210.787L55.7598 210.101L55.8157 210.237ZM52.4702 211.609L50.7975 212.295L50.7417 212.159L52.4144 211.473L52.4702 211.609ZM49.1248 212.982L47.4521 213.668L47.3962 213.532L49.069 212.846L49.1248 212.982Z" fill="#E6E6E6"/>
<path d="M45.7234 214.218L44.9065 214.553L44.9624 214.689L45.7793 214.354L45.7234 214.218Z" fill="#E6E6E6"/>
<path d="M62.4431 219.303L61.6262 219.638L61.6821 219.774L62.499 219.439L62.4431 219.303Z" fill="#E6E6E6"/>
<path d="M60.0095 220.46L58.3368 221.146L58.281 221.01L59.9537 220.324L60.0095 220.46ZM56.6641 221.832L54.9914 222.519L54.9355 222.382L56.6082 221.696L56.6641 221.832ZM53.3187 223.205L51.6459 223.891L51.5901 223.755L53.2628 223.069L53.3187 223.205Z" fill="#E6E6E6"/>
<path d="M49.9175 224.441L49.1006 224.776L49.1564 224.913L49.9733 224.577L49.9175 224.441Z" fill="#E6E6E6"/>
<path d="M53.8052 223.127L100.892 203.81C102.032 203.341 102.939 202.439 103.414 201.302C103.889 200.165 103.895 198.886 103.428 197.746L93.9144 174.556L93.8224 174.597L82.2673 202.225L73.6972 198.642C73.5391 198.576 73.3677 198.547 73.1964 198.557C73.0252 198.568 72.8587 198.618 72.7101 198.704C72.4869 198.838 72.3143 199.042 72.2188 199.285L66.163 213.763L59.897 211.144C59.7618 211.087 59.6168 211.058 59.4702 211.057C59.3236 211.057 59.1784 211.085 59.0428 211.141C58.9072 211.196 58.7839 211.278 58.6799 211.381C58.5759 211.485 58.4933 211.608 58.4368 211.743C58.3967 211.841 54.5331 221.32 53.8052 223.127Z" fill="#C01C25"/>
<path d="M53.6599 223.346L53.5242 223.289L58.3695 211.703C58.4977 211.397 58.7421 211.154 59.0489 211.028C59.3558 210.903 59.7 210.904 60.0061 211.031L66.1483 213.6L72.1697 199.201C72.298 198.895 72.5423 198.653 72.8491 198.527C73.156 198.401 73.5002 198.402 73.8063 198.53L82.2526 202.062L93.8671 174.289L94.0029 174.346L82.3316 202.255L73.7495 198.666C73.6158 198.61 73.4724 198.581 73.3274 198.58C73.1825 198.58 73.0389 198.608 72.9048 198.663C72.7707 198.718 72.6487 198.799 72.5459 198.901C72.4431 199.003 72.3614 199.124 72.3054 199.258L66.2273 213.792L59.9493 211.167C59.6792 211.054 59.3755 211.054 59.1048 211.165C58.8341 211.276 58.6185 211.49 58.5052 211.759L53.6599 223.346Z" fill="#3F3D56"/>
<path d="M58.2772 210.177C58.8461 210.177 59.3074 209.716 59.3074 209.147C59.3074 208.578 58.8461 208.117 58.2772 208.117C57.7083 208.117 57.2471 208.578 57.2471 209.147C57.2471 209.716 57.7083 210.177 58.2772 210.177Z" fill="#3F3D56"/>
<path d="M71.7494 197.652C72.3183 197.652 72.7795 197.19 72.7795 196.621C72.7795 196.053 72.3183 195.591 71.7494 195.591C71.1805 195.591 70.7192 196.053 70.7192 196.621C70.7192 197.19 71.1805 197.652 71.7494 197.652Z" fill="#3F3D56"/>
<path d="M92.7269 173.949C93.2958 173.949 93.7571 173.488 93.7571 172.919C93.7571 172.35 93.2958 171.889 92.7269 171.889C92.158 171.889 91.6968 172.35 91.6968 172.919C91.6968 173.488 92.158 173.949 92.7269 173.949Z" fill="#3F3D56"/>
<path d="M35.067 207.978C35.6025 207.712 36.0731 207.331 36.4456 206.863C36.818 206.395 37.0834 205.851 37.2229 205.269C37.3624 204.688 37.3726 204.083 37.2529 203.497C37.1332 202.911 36.8865 202.358 36.5301 201.877L39.5896 171.964H32.9777L30.5462 201.173C29.7789 201.825 29.2774 202.736 29.1369 203.733C28.9964 204.731 29.2266 205.745 29.7838 206.584C30.3411 207.422 31.1867 208.028 32.1604 208.285C33.1341 208.542 34.1683 208.433 35.067 207.978Z" fill="#FFB8B8"/>
<path d="M41.138 155.455C46.3044 155.455 50.4926 151.267 50.4926 146.101C50.4926 140.934 46.3044 136.746 41.138 136.746C35.9716 136.746 31.7834 140.934 31.7834 146.101C31.7834 151.267 35.9716 155.455 41.138 155.455Z" fill="#FFB8B8"/>
<path d="M42.8991 189.384C42.5247 189.384 42.1606 189.261 41.8628 189.034C41.5649 188.807 41.3498 188.489 41.2503 188.128C40.5008 185.405 38.5509 180.801 35.4549 174.444C34.7563 173.006 34.3694 171.438 34.3197 169.841C34.27 168.243 34.5585 166.654 35.1663 165.176C35.7742 163.698 36.6876 162.366 37.8467 161.266C39.0058 160.166 40.3843 159.323 41.8919 158.793C43.3206 158.289 44.8359 158.076 46.3483 158.168C47.8606 158.259 49.3393 158.653 50.6967 159.326C52.0542 159.999 53.2629 160.937 54.2513 162.086C55.2398 163.234 55.9879 164.569 56.4514 166.011C58.8511 173.535 58.7353 181.594 58.574 184.71C58.554 185.085 58.4116 185.443 58.1685 185.73C57.9254 186.016 57.595 186.215 57.2281 186.296L43.2667 189.345C43.146 189.371 43.0227 189.385 42.8991 189.384Z" fill="#3F3D56"/>
<path d="M56.4193 278.214H61.0884L63.3099 260.203L56.4185 260.204L56.4193 278.214Z" fill="#FFB8B8"/>
<path d="M70.0935 282.55L55.4183 282.55L55.418 276.881L64.4233 276.88C65.1679 276.88 65.9052 277.027 66.5931 277.312C67.281 277.597 67.9061 278.014 68.4326 278.541C68.9592 279.067 69.3768 279.692 69.6618 280.38C69.9468 281.068 70.0935 281.805 70.0935 282.55Z" fill="#2F2E41"/>
<path d="M9.72754 272.163L13.8195 274.413L24.4435 259.701L18.4048 256.38L9.72754 272.163Z" fill="#FFB8B8"/>
<path d="M19.6218 282.55L6.76197 275.48L9.49357 270.512L17.3849 274.85C18.7026 275.575 19.6786 276.793 20.0981 278.237C20.5176 279.681 20.3463 281.233 19.6218 282.55Z" fill="#2F2E41"/>
<path d="M56.2009 268.218C55.7849 268.217 55.3831 268.066 55.0707 267.791C54.7582 267.516 54.5564 267.137 54.5029 266.724L48.6633 221.725C48.6375 221.526 48.5495 221.34 48.4118 221.194C48.274 221.048 48.0937 220.95 47.8965 220.912C47.6993 220.875 47.4954 220.901 47.3137 220.986C47.1321 221.071 46.9821 221.212 46.8852 221.388L22.5481 265.542C22.3473 265.903 22.0238 266.179 21.6364 266.322C21.249 266.464 20.8234 266.462 20.4371 266.317L15.1323 264.296C14.9189 264.215 14.724 264.092 14.5588 263.934C14.3937 263.776 14.2617 263.587 14.1707 263.378C14.0797 263.168 14.0314 262.943 14.0287 262.715C14.026 262.486 14.069 262.26 14.155 262.048L31.014 220.634C31.0566 220.528 31.0856 220.418 31.1001 220.306C33.3835 202.632 39.1934 193.644 40.9196 191.311C41.0456 191.139 41.1286 190.94 41.1615 190.729C41.1944 190.519 41.1762 190.304 41.1084 190.102L40.8711 189.39C40.7763 189.108 40.7569 188.805 40.8147 188.513C40.8726 188.221 41.0057 187.948 41.2009 187.723C47.4211 180.639 58.2624 184.504 58.3713 184.544L58.4256 184.564L58.4596 184.611C70.616 201.282 66.1214 255.431 65.097 266.117C65.0587 266.519 64.8797 266.894 64.5915 267.176C64.3034 267.458 63.9247 267.63 63.5224 267.66L56.3341 268.213C56.2894 268.216 56.245 268.218 56.2009 268.218Z" fill="#2F2E41"/>
<path d="M77.5049 156.967C77.4581 157.172 77.4277 157.381 77.4138 157.592L61.0525 167.03L57.0757 164.741L52.8362 170.291L59.4825 175.028C60.0194 175.411 60.666 175.609 61.3252 175.593C61.9843 175.577 62.6205 175.347 63.1382 174.939L80.0094 161.629C80.7708 161.911 81.5999 161.954 82.3866 161.754C83.1732 161.553 83.88 161.117 84.413 160.505C84.9461 159.892 85.28 159.132 85.3704 158.325C85.4609 157.518 85.3035 156.703 84.9193 155.988C84.5351 155.273 83.9423 154.691 83.2196 154.321C82.497 153.951 81.6788 153.81 80.8739 153.916C80.069 154.023 79.3156 154.371 78.7137 154.916C78.1119 155.461 77.6903 156.176 77.5049 156.967Z" fill="#FFB8B8"/>
<path d="M60.5057 167.477L55.2178 174.331C55.0674 174.526 54.8767 174.686 54.6587 174.801C54.4407 174.915 54.2005 174.982 53.9546 174.995C53.7087 175.009 53.4628 174.969 53.2336 174.879C53.0044 174.789 52.7973 174.65 52.6264 174.473L46.6402 168.256C45.6469 167.481 45.0016 166.343 44.8458 165.093C44.6901 163.842 45.0365 162.581 45.8092 161.586C46.582 160.59 47.7178 159.942 48.9679 159.783C50.2179 159.624 51.4801 159.967 52.4776 160.737L59.9857 164.935C60.2006 165.055 60.3871 165.22 60.5325 165.419C60.6778 165.618 60.7786 165.846 60.8279 166.087C60.8773 166.328 60.874 166.577 60.8184 166.817C60.7628 167.057 60.6562 167.282 60.5057 167.477Z" fill="#3F3D56"/>
<path d="M40.0106 179.384L31.4921 177.846C31.2498 177.802 31.0197 177.707 30.8175 177.566C30.6154 177.425 30.4459 177.243 30.3207 177.031C30.1955 176.818 30.1175 176.582 30.092 176.337C30.0665 176.092 30.094 175.844 30.1728 175.611L32.9344 167.435C33.1653 166.196 33.878 165.099 34.9163 164.385C35.9546 163.671 37.2337 163.398 38.4732 163.625C39.7127 163.853 40.8113 164.563 41.5283 165.599C42.2452 166.635 42.5219 167.914 42.2976 169.154L42.0282 177.752C42.0204 177.998 41.9596 178.239 41.8501 178.46C41.7405 178.681 41.5847 178.875 41.3932 179.03C41.2017 179.185 40.9791 179.297 40.7405 179.358C40.5019 179.419 40.253 179.428 40.0106 179.384Z" fill="#3F3D56"/>
<path d="M42.6185 143.949C45.0228 145.595 48.1797 147.286 50.6354 145.534C51.4035 144.949 51.9615 144.131 52.2259 143.202C52.4903 142.274 52.4468 141.284 52.102 140.383C50.9261 137.02 47.6955 135.54 44.6062 134.405C40.5902 132.93 36.2173 131.756 32.0714 132.813C27.9255 133.869 24.2614 137.883 25.0098 142.096C25.6117 145.483 28.8071 148.302 28.3535 151.712C27.8969 155.145 24.0368 156.952 20.6289 157.565C17.2209 158.179 13.4074 158.376 10.9583 160.824C7.83396 163.946 8.61416 169.528 11.554 172.825C14.4939 176.122 18.9303 177.616 23.2291 178.632C28.9249 179.978 35.0852 180.685 40.4948 178.451C45.9043 176.218 50.1139 170.204 48.5468 164.565C47.8849 162.183 46.3256 160.17 44.8187 158.21C43.3117 156.251 41.7858 154.201 41.2109 151.797C40.7319 149.793 41.0865 147.467 42.4152 145.964C42.6569 145.701 42.8089 145.368 42.8496 145.013C42.8903 144.658 42.8175 144.3 42.6416 143.989L42.6185 143.949Z" fill="#2F2E41"/>
<path d="M78.2725 282.776H1.26371C1.15621 282.776 1.05312 282.734 0.97711 282.658C0.9011 282.582 0.858398 282.479 0.858398 282.371C0.858398 282.264 0.9011 282.161 0.97711 282.085C1.05312 282.009 1.15621 281.966 1.26371 281.966H78.2725C78.38 281.966 78.4831 282.009 78.5591 282.085C78.6351 282.161 78.6778 282.264 78.6778 282.371C78.6778 282.479 78.6351 282.582 78.5591 282.658C78.4831 282.734 78.38 282.776 78.2725 282.776Z" fill="#CCCCCC"/>
</g>
<defs>
<clipPath id="clip0_18_223">
<rect width="403.283" height="282.777" fill="white" transform="translate(0.858398)"/>
</clipPath>
</defs>
</svg>
