<svg width="404" height="327" viewBox="0 0 404 327" fill="none" xmlns="http://www.w3.org/2000/svg">
<g clip-path="url(#clip0_18_666)">
<path d="M265.755 182.591C257.235 187.701 242.055 194.103 226.543 187.523L216.515 183.27L236.61 160.744C220.575 143.064 211.704 120.043 211.728 96.1742C211.753 72.3055 220.671 49.3025 236.742 31.6552C252.813 14.0078 274.884 2.98268 298.646 0.731827C322.409 -1.51903 346.157 5.16593 365.256 19.4818C384.355 33.7978 397.434 54.7172 401.939 78.1567C406.445 101.596 402.054 125.874 389.624 146.25C377.194 166.627 357.616 181.64 334.713 188.359C311.809 195.079 287.224 193.022 265.755 182.591ZM227.254 96.1204C227.21 107.123 229.443 118.016 233.813 128.115C238.183 138.213 244.595 147.297 252.646 154.797L258.189 160.006L245.544 174.18C252.131 172.843 257.867 169.28 260.776 167.211L264.767 164.371L269.06 166.73C280.926 173.226 294.236 176.631 307.764 176.63C352.156 176.63 388.273 140.513 388.273 96.1205C388.273 51.7277 352.156 15.6113 307.764 15.6113C263.371 15.6113 227.254 51.7276 227.254 96.1204Z" fill="#3F3D56"/>
<path d="M219.449 96.1204C219.449 47.3455 258.989 7.80566 307.763 7.80566C356.538 7.80566 396.078 47.3455 396.078 96.1204C396.078 144.895 356.538 184.435 307.763 184.435C292.919 184.457 278.311 180.719 265.301 173.571C259.196 177.915 244.303 186.578 229.591 180.338L247.301 160.485C238.497 152.237 231.482 142.267 226.691 131.195C221.9 120.123 219.435 108.185 219.449 96.1204Z" fill="white"/>
<path opacity="0.1" d="M381.033 96.3118C381.033 50.1679 345.642 12.2965 300.524 8.34433C303.097 8.119 305.699 7.99707 308.33 7.99707C357.105 7.99707 396.644 47.5369 396.644 96.3118C396.644 145.087 357.105 184.626 308.33 184.626C305.703 184.626 303.105 184.503 300.537 184.278C345.648 180.32 381.033 142.451 381.033 96.3118Z" fill="black"/>
<path d="M104.252 305.279C82.1848 305.289 60.7847 297.714 43.6379 283.824C26.4912 269.933 14.6398 250.572 10.0699 228.983C5.50007 207.394 8.48947 184.891 18.5371 165.244C28.5848 145.597 45.0801 130 65.2586 121.068C85.4372 112.136 108.073 110.411 129.372 116.183C150.671 121.954 169.339 134.87 182.248 152.768C195.157 170.665 201.521 192.456 200.276 214.488C199.03 236.52 190.25 257.454 175.406 273.782L195.5 296.308L185.473 300.561C169.96 307.141 154.78 300.739 146.26 295.629C133.166 301.977 118.804 305.276 104.252 305.279ZM104.252 128.649C59.8591 128.649 23.7428 164.766 23.7428 209.158C23.7428 253.551 59.8591 289.668 104.252 289.668C117.78 289.669 131.09 286.264 142.956 279.768L147.248 277.409L151.239 280.249C154.148 282.318 159.885 285.881 166.471 287.218L153.827 273.044L159.369 267.835C167.42 260.335 173.833 251.251 178.202 241.153C182.572 231.054 184.805 220.161 184.761 209.158C184.761 164.766 148.645 128.649 104.252 128.649Z" fill="#3F3D56"/>
<path d="M192.566 209.158C192.566 160.384 153.027 120.844 104.252 120.844C55.4768 120.844 15.937 160.384 15.937 209.158C15.937 257.933 55.4768 297.473 104.252 297.473C119.096 297.495 133.704 293.757 146.714 286.609C152.819 290.953 167.712 299.617 182.424 293.376L164.714 273.523C173.518 265.275 180.533 255.305 185.324 244.233C190.115 233.161 192.58 221.223 192.566 209.158Z" fill="white"/>
<path opacity="0.1" d="M31.5482 208.712C31.5482 162.568 66.9394 124.697 112.057 120.745C109.485 120.519 106.883 120.397 104.252 120.397C55.4768 120.397 15.937 159.937 15.937 208.712C15.937 257.487 55.4768 297.027 104.252 297.027C106.879 297.027 109.476 296.903 112.045 296.678C66.9329 292.721 31.5482 254.852 31.5482 208.712Z" fill="black"/>
<path d="M328.496 68.0627C322.718 58.2992 311.286 57.8442 311.286 57.8442C311.286 57.8442 300.146 56.4197 293 71.2896C286.339 85.1496 277.147 98.5318 291.52 101.776L294.116 93.6956L295.724 102.378C297.771 102.525 299.824 102.56 301.874 102.483C317.267 101.986 331.926 102.628 331.454 97.1048C330.826 89.7621 334.056 77.4572 328.496 68.0627Z" fill="#2F2E41"/>
<path d="M290.7 153.567C290.53 154.641 290.284 155.701 289.963 156.74C289.601 157.757 289.043 158.697 288.712 159.724C287.658 162.998 289.119 166.649 291.453 169.177C293.476 171.36 296.088 172.911 298.973 173.642C301.097 174.097 303.264 174.325 305.436 174.322C311.443 174.525 317.604 174.708 323.296 172.777C325.094 172.152 326.831 171.363 328.485 170.42C329.007 170.171 329.467 169.809 329.831 169.36C330.213 168.702 330.382 167.942 330.317 167.185C330.304 164.638 329.788 162.105 329.911 159.561C329.979 158.153 330.242 156.745 330.112 155.34C329.933 153.745 329.265 152.244 328.199 151.044C327.134 149.843 325.724 149.001 324.161 148.632C322.547 148.286 320.872 148.475 319.228 148.633C314.961 149.043 310.676 149.234 306.389 149.207C302.009 149.179 297.656 148.51 293.298 148.44C292.01 148.42 292.036 148.817 291.625 150.064C291.247 151.212 290.938 152.382 290.7 153.567Z" fill="#2F2E41"/>
<path d="M303.129 90.6886C302.918 91.7907 302.691 92.9331 302.029 93.8387C301.267 94.8808 300.024 95.4761 299.205 96.4733C297.971 97.9743 297.9 100.087 297.895 102.03C297.89 103.82 297.927 105.729 298.925 107.215C299.635 108.138 300.517 108.915 301.522 109.504C305.265 112.027 309.31 114.595 313.823 114.678C315.694 114.713 317.699 114.23 318.929 112.821C319.46 112.159 319.878 111.414 320.165 110.616C321.319 107.771 322.019 104.762 322.238 101.7C322.405 100.261 322.27 98.8023 321.844 97.4174C321.295 95.8887 320.187 94.6309 319.454 93.1815C318.588 91.458 318.271 89.5104 318.546 87.6013C318.583 87.4669 318.572 87.324 318.515 87.1969C318.454 87.1289 318.379 87.0757 318.295 87.0416C318.211 87.0075 318.12 86.9933 318.029 87.0002L309.08 86.3559C308.246 86.3145 307.416 86.2196 306.595 86.0717C306.113 85.9736 304.839 85.2884 304.379 85.4706C303.527 85.8079 303.303 89.7747 303.129 90.6886Z" fill="#A0616A"/>
<path opacity="0.1" d="M303.129 90.9677C302.918 92.0697 302.691 93.2121 302.029 94.1178C301.267 95.1598 300.024 95.7552 299.205 96.7524C297.971 98.2534 297.9 100.366 297.895 102.309C297.89 104.099 297.927 106.008 298.925 107.494C299.635 108.417 300.517 109.194 301.522 109.783C305.265 112.306 309.31 114.874 313.823 114.957C315.694 114.992 317.699 114.509 318.929 113.1C319.46 112.438 319.878 111.693 320.165 110.895C321.319 108.05 322.019 105.041 322.238 101.979C322.405 100.54 322.27 99.0814 321.844 97.6965C321.295 96.1678 320.187 94.9099 319.454 93.4606C318.588 91.7371 318.271 89.7895 318.546 87.8803C318.583 87.7459 318.572 87.603 318.515 87.4759C318.454 87.4079 318.379 87.3548 318.295 87.3207C318.211 87.2865 318.12 87.2724 318.029 87.2792L309.08 86.635C308.246 86.5936 307.416 86.4986 306.595 86.3507C306.113 86.2526 304.839 85.5675 304.379 85.7497C303.527 86.0869 303.303 90.0537 303.129 90.9677Z" fill="black"/>
<path d="M311.688 91.8885C318.939 91.8885 324.817 86.0102 324.817 78.759C324.817 71.5077 318.939 65.6294 311.688 65.6294C304.436 65.6294 298.558 71.5077 298.558 78.759C298.558 86.0102 304.436 91.8885 311.688 91.8885Z" fill="#A0616A"/>
<path d="M304.971 108.166C305.619 108.917 306.401 109.542 307.277 110.009C308.19 110.386 309.17 110.573 310.158 110.557C312.525 110.624 315.09 110.19 316.737 108.489C318.859 106.295 318.789 102.758 320.453 100.199C320.587 99.9669 320.77 99.7668 320.989 99.6126C321.268 99.4607 321.583 99.3882 321.9 99.403C324.001 99.3834 325.832 100.746 327.483 102.045C328.261 102.58 328.928 103.259 329.448 104.046C329.775 104.684 329.999 105.369 330.111 106.076C330.931 110.077 331.196 114.168 331.46 118.244C331.605 120.495 331.751 122.748 331.74 125.004C331.704 132.437 329.977 139.745 328.259 146.976C328.037 147.907 327.735 148.949 326.887 149.395C326.51 149.565 326.104 149.664 325.69 149.687C320.77 150.265 315.84 150.844 310.886 150.92C308.953 150.95 307.021 150.903 305.089 150.78C304.757 150.775 304.427 150.718 304.113 150.609C303.686 150.405 303.319 150.093 303.048 149.705C300.369 146.329 300.21 141.661 300.228 137.35C300.269 126.812 300.646 116.282 301.357 105.76C301.416 104.891 301.429 103.837 300.803 103.154C302.021 104.959 303.418 106.639 304.971 108.166Z" fill="#C01C25"/>
<path d="M302.19 93.0057C301.746 93.8084 298.477 95.8017 297.846 96.467C294.319 100.184 287.883 100.045 284.658 104.026C283.523 105.427 282.933 107.187 282.5 108.937C281.886 111.411 281.559 114.11 282.586 116.444C283.575 118.689 285.656 120.241 287.069 122.247C288.62 124.449 289.317 127.123 289.986 129.733C290.479 131.659 290.977 133.634 290.785 135.613C290.566 137.864 289.477 139.925 288.834 142.093C288.191 144.261 288.08 146.843 289.567 148.547C290.659 149.799 292.372 150.295 294.01 150.574C296.108 150.889 298.223 151.073 300.343 151.125C302.216 151.208 304.279 151.224 305.719 150.024C306.854 149.077 307.348 147.54 307.412 146.063C307.475 144.586 307.168 143.122 306.976 141.655C306.776 140.136 306.699 138.603 306.635 137.071C306.347 130.199 306.308 123.323 306.517 116.443C306.623 115.013 306.553 113.575 306.308 112.162C305.907 110.322 304.912 108.677 304.082 106.986C302.423 103.8 301.672 100.221 301.91 96.6373C302.162 92.9548 303.768 90.1492 302.19 93.0057Z" fill="#C01C25"/>
<path d="M320.627 93.2854C321.302 93.9796 323.597 94.2085 324.457 94.6555C325.265 95.0289 326.108 95.3209 326.974 95.5272C330.108 96.4313 333.089 97.7996 335.819 99.5864C336.386 99.9181 336.887 100.351 337.297 100.864C337.73 101.568 338.009 102.355 338.116 103.174C338.536 105.258 338.959 107.367 338.865 109.491C338.764 111.746 338.085 113.929 337.411 116.083L334.894 124.131C333.015 130.138 331.124 136.205 330.595 142.477C330.303 145.953 330.433 149.452 330.983 152.896C331.034 153.064 331.05 153.241 331.028 153.415C331.006 153.589 330.947 153.756 330.856 153.906C330.69 154.07 330.472 154.17 330.239 154.189C329.024 154.379 327.849 153.76 326.748 153.212C323.383 151.537 319.793 150.362 316.089 149.724C317.536 147.632 318.653 145.331 319.4 142.899C319.824 141.356 320.158 139.788 320.4 138.206L321.571 131.433C322.047 128.957 322.383 126.457 322.575 123.943C322.664 123 322.609 122.049 322.412 121.122C322.142 120.24 321.784 119.387 321.343 118.577C319.413 114.563 318.507 109.982 319.267 105.593C319.599 103.672 320.245 101.749 319.976 99.818C319.717 97.9618 319.986 96.5192 319.509 94.6822C317.554 87.1396 319.356 91.9794 320.627 93.2854Z" fill="#C01C25"/>
<path d="M284.624 110.373C283.744 112.199 282.274 113.755 281.773 115.718C281.578 116.636 281.495 117.574 281.524 118.512C281.437 119.925 281.577 121.344 281.939 122.713C282.218 123.579 282.673 124.378 283 125.227C283.457 126.413 283.66 127.681 283.597 128.951C283.509 130.709 282.911 132.417 282.865 134.177C282.791 136.945 284.072 139.547 285.321 142.019C285.635 141.24 286.116 140.539 286.73 139.966C287.343 139.392 288.075 138.96 288.873 138.699C289.671 138.437 290.517 138.353 291.35 138.453C292.184 138.553 292.986 138.833 293.7 139.275C293.987 138.924 294.122 138.474 294.078 138.023C294.17 134.811 294.259 131.6 294.345 128.388C294.481 123.421 294.609 118.387 293.467 113.552C292.951 111.368 292.148 109.193 290.677 107.5C289.902 106.608 287.271 104.259 285.999 105.258C285.427 105.707 285.561 106.93 285.47 107.549C285.333 108.528 285.048 109.481 284.624 110.373Z" fill="#C01C25"/>
<path d="M339.122 105.112C339.476 106.428 339.627 107.791 339.571 109.153C339.588 111.93 339.551 114.705 339.461 117.481C339.475 118.905 339.293 120.323 338.92 121.697C338.636 122.591 338.197 123.428 337.904 124.319C337.024 126.988 337.505 129.882 337.58 132.691C337.634 133.6 337.556 134.512 337.35 135.399C336.886 137.14 335.639 138.547 334.768 140.125C333.941 141.624 333.443 143.303 332.455 144.701C331.468 146.099 329.759 147.207 328.102 146.778C326.847 146.452 325.955 145.341 325.338 144.201C323.991 141.693 323.531 138.804 324.031 136.002C324.65 132.593 326.653 129.569 327.375 126.18C328.367 121.526 326.859 116.724 326.904 111.966C326.884 111.221 326.985 110.476 327.204 109.763C327.582 108.676 328.396 107.808 329.148 106.937C330.087 105.848 330.959 104.703 331.76 103.508C332.298 102.706 333.029 100.642 333.983 100.47C336.113 100.087 338.594 103.466 339.122 105.112Z" fill="#C01C25"/>
<path d="M273.573 151.497C272.395 151.201 271.181 151.072 269.968 151.114C268.693 151.184 267.447 151.525 266.314 152.114C265.181 152.704 264.186 153.527 263.396 154.531C262.606 155.534 262.038 156.694 261.731 157.934C261.424 159.173 261.384 160.464 261.615 161.72C261.909 163.081 262.389 164.395 263.043 165.624C263.999 167.564 265.146 169.5 266.916 170.743C267.982 171.427 269.13 171.973 270.333 172.37L279.655 175.881C281.026 176.398 282.398 176.915 283.783 177.394C290.74 179.799 297.994 181.241 305.342 181.68C307.578 181.889 309.833 181.775 312.036 181.341C312.569 181.271 313.057 181.007 313.407 180.6C313.585 180.29 313.69 179.944 313.713 179.588L314.287 175.573C314.415 175.013 314.399 174.431 314.238 173.88C313.976 173.205 313.317 172.78 312.689 172.42C306.561 168.9 299.405 166.958 294.247 162.127C293.032 160.99 292.016 159.187 290.541 158.415C288.868 157.539 286.897 157.039 285.168 156.231C281.387 154.467 277.67 152.439 273.573 151.497Z" fill="#2F2E41"/>
<path opacity="0.1" d="M282.879 156.91C286.174 157.943 300.085 165.095 302.469 167.593C302.149 167.708 291.306 161.631 290.98 161.533C287.998 160.714 285.077 159.685 282.24 158.453C281.675 158.192 278.569 156.963 278.71 156.251C278.868 155.446 282.294 156.727 282.879 156.91Z" fill="black"/>
<path d="M323.984 183.763C324.171 183.776 324.356 183.722 324.506 183.609C324.572 183.524 324.62 183.428 324.648 183.325C324.676 183.222 324.683 183.114 324.669 183.008L324.654 177.537C323.081 176.788 321.321 176.547 319.594 176.316L311.535 175.239C311.72 175.264 310.275 178.71 310.496 179.17C310.887 179.981 313.872 180.7 314.714 181.083C317.643 182.414 320.686 183.877 323.984 183.763Z" fill="#A0616A"/>
<path d="M298.699 177.518C297.177 177.76 295.479 177.975 294.493 179.159C293.244 180.661 293.776 182.9 294.372 184.761C294.408 185.001 294.492 185.232 294.619 185.439C294.746 185.646 294.913 185.825 295.111 185.967C295.309 186.108 295.533 186.208 295.769 186.262C296.006 186.315 296.252 186.32 296.491 186.277C297.878 186.365 299.355 186.433 300.568 185.753C301.117 185.39 301.646 184.997 302.151 184.576C303.045 183.981 304.028 183.531 305.063 183.244C306.966 182.646 308.924 182.242 310.908 182.04C311.69 182.004 312.464 181.868 313.211 181.634C313.584 181.514 313.924 181.309 314.205 181.036C314.486 180.763 314.701 180.429 314.832 180.06C315.113 179.065 314.535 178.052 313.981 177.18C313.343 176.038 312.514 175.014 311.53 174.151C310.028 172.984 309.286 173.88 307.773 174.626C304.91 176.039 301.851 177.014 298.699 177.518Z" fill="#A0616A"/>
<path d="M294.723 178.889L285.061 176.033C283.902 175.629 282.691 175.395 281.466 175.336C280.852 175.311 280.24 175.417 279.671 175.647C279.101 175.878 278.587 176.227 278.164 176.671C277.415 177.551 277.2 178.752 277.013 179.892L276.614 182.331C276.347 183.56 276.272 184.823 276.39 186.076C276.454 186.702 276.661 187.306 276.993 187.84C277.326 188.375 277.776 188.826 278.309 189.161C279.646 189.89 281.285 189.534 282.777 189.229C285.791 188.613 288.857 188.284 291.933 188.247C293.089 188.233 294.302 188.248 295.324 187.706C295.917 187.355 296.416 186.863 296.776 186.275C297.136 185.687 297.347 185.02 297.391 184.332C297.581 182.249 296.886 179.528 294.723 178.889Z" fill="#2F2E41"/>
<path d="M327.782 176.4C329.034 176.181 330.139 175.469 331.34 175.049C333.029 174.457 334.859 174.457 336.649 174.464C337.307 174.404 337.969 174.536 338.553 174.845C339.341 175.37 339.543 176.42 339.677 177.358L340.486 183.015C340.702 184.07 340.725 185.156 340.552 186.219C340.315 187.268 339.6 188.278 338.56 188.549C337.297 188.877 336.058 188.07 334.865 187.54C331.884 186.215 328.418 186.554 325.309 185.563C325.012 185.504 324.731 185.382 324.484 185.205C324.238 185.029 324.032 184.802 323.879 184.54C323.773 184.226 323.735 183.893 323.768 183.563C323.821 181.745 323.438 179.262 323.985 177.524C324.477 175.961 326.383 176.4 327.782 176.4Z" fill="#2F2E41"/>
<path d="M348.228 149.22C350.158 148.736 352.159 148.599 354.138 148.816C355.718 148.99 357.346 149.43 358.499 150.524C359.903 151.855 360.355 153.913 360.392 155.848C360.454 159.701 359.176 163.455 356.777 166.471C356.191 167.233 355.494 167.904 354.71 168.461C353.864 168.99 352.962 169.424 352.021 169.756L331.145 177.99C325.653 180.156 320.142 182.329 314.414 183.757C314.257 183.833 314.087 183.876 313.913 183.885C313.74 183.894 313.566 183.868 313.403 183.809C313.239 183.749 313.089 183.658 312.961 183.54C312.834 183.422 312.731 183.279 312.659 183.121C310.83 180.508 309.296 177.701 308.084 174.751C308.027 174.681 307.987 174.598 307.968 174.51C307.95 174.421 307.953 174.329 307.977 174.242C308.002 174.155 308.047 174.075 308.109 174.009C308.171 173.942 308.248 173.892 308.333 173.862L323.099 165.378C324.181 164.814 325.191 164.118 326.104 163.308C326.742 162.689 327.264 161.962 327.647 161.16C327.953 160.52 327.981 159.012 328.372 158.539C328.755 158.077 330.064 158.04 330.669 157.858C331.522 157.597 332.357 157.281 333.17 156.913C336.473 155.435 339.414 153.288 342.58 151.558C344.356 150.543 346.254 149.757 348.228 149.22Z" fill="#2F2E41"/>
<path opacity="0.1" d="M339.857 155.556C337.32 157.461 334.036 159.213 331.522 161.168C330.664 161.836 316.359 169.877 316.157 170.946C318.503 171.341 333.444 160.888 335.582 159.845C337.72 158.802 339.615 157.331 341.493 155.871C341.971 155.499 343.999 154.38 342.626 153.965C341.852 153.731 340.429 155.175 339.857 155.556Z" fill="black"/>
<path d="M322.402 93.4697H300.135C299.23 93.4697 298.362 93.8291 297.723 94.4688C297.083 95.1085 296.724 95.9762 296.724 96.8809V98.13H296.482V100.924H296.724V102.879H296.482V104.555H296.724V125.167C296.724 126.072 297.083 126.94 297.723 127.579C298.362 128.219 299.23 128.578 300.135 128.578H322.402C323.307 128.578 324.175 128.219 324.814 127.579C325.454 126.94 325.814 126.072 325.814 125.167V96.8808C325.814 95.9761 325.454 95.1085 324.814 94.4688C324.175 93.8291 323.307 93.4697 322.402 93.4697Z" fill="#D0CDE1"/>
<path d="M325.942 67.122L314.648 61.2058L299.051 63.6261L295.824 77.8783L303.857 77.569L306.101 72.3331V77.4831L309.807 77.3405L311.958 69.004L313.303 77.8783L326.48 77.6092L325.942 67.122Z" fill="#2F2E41"/>
<path d="M287.579 147.374C288.09 148.243 288.816 148.965 289.687 149.471C290.259 149.732 290.882 149.859 291.511 149.842C292.139 149.826 292.755 149.665 293.311 149.374C294.423 148.778 295.333 147.866 295.927 146.752C297.154 144.585 297.408 141.991 297.255 139.505C297.102 137.019 296.571 134.57 296.336 132.091C296.165 130.288 296.151 128.475 296.138 126.664C296.095 126.283 296.175 125.899 296.366 125.566C296.694 125.24 297.118 125.028 297.576 124.962C300.054 124.226 301.698 121.904 302.877 119.604C303.664 118.068 304.349 116.39 304.197 114.671C304.045 112.952 302.809 111.22 301.093 111.045C299.678 110.9 298.371 111.799 297.35 112.79C294.774 115.305 293.119 118.613 292.65 122.182C292.426 123.93 292.49 125.725 292.015 127.422C291 131.045 287.824 133.266 286.242 136.526C284.498 140.118 285.46 144.196 287.579 147.374Z" fill="#A0616A"/>
<path d="M334.313 133.533C333.952 134.374 333.426 135.133 332.766 135.767C332.107 136.4 331.327 136.895 330.473 137.223C329.412 137.649 328.241 137.721 327.135 137.427C326.587 137.275 326.081 136.999 325.657 136.619C325.233 136.24 324.902 135.768 324.69 135.24C324.521 134.708 324.429 134.155 324.415 133.597C324.256 131.154 324.317 128.637 325.205 126.355C325.547 125.475 326.009 124.64 326.279 123.735C326.544 122.69 326.68 121.617 326.683 120.538L326.975 113.872C327.023 113.389 326.99 112.9 326.876 112.427C326.585 111.463 325.683 110.836 324.856 110.261C322.859 108.871 320.885 107.25 319.917 105.018C319.584 104.346 319.465 103.588 319.576 102.847C319.848 101.523 321.184 100.666 322.505 100.377C323.369 100.188 324.262 100.176 325.13 100.342C325.999 100.507 326.825 100.847 327.559 101.34C328.293 101.834 328.92 102.47 329.401 103.212C329.882 103.954 330.208 104.786 330.359 105.657C330.49 106.409 330.488 107.178 330.565 107.937C330.727 109.549 331.239 111.102 331.559 112.69C332.347 116.601 331.938 120.643 332.718 124.554C333.37 127.823 335.828 129.956 334.313 133.533Z" fill="#A0616A"/>
<path d="M311.566 108.466C313.109 108.466 314.36 107.215 314.36 105.673C314.36 104.13 313.109 102.879 311.566 102.879C310.024 102.879 308.773 104.13 308.773 105.673C308.773 107.215 310.024 108.466 311.566 108.466Z" fill="#143771"/>
<path d="M8.24152 206.072C12.7926 206.072 16.4821 202.383 16.4821 197.832C16.4821 193.28 12.7926 189.591 8.24152 189.591C3.69039 189.591 0.000976562 193.28 0.000976562 197.832C0.000976562 202.383 3.69039 206.072 8.24152 206.072Z" fill="#2F2E41"/>
<path d="M38.1121 222.295L33.9615 218.261L25.6268 220.85L26.4274 230.5L43.5645 229.704L38.2999 222.551L38.1121 222.295Z" fill="#FBBEBE"/>
<path d="M29.0341 222.212C36.3921 222.212 42.3568 216.248 42.3568 208.89C42.3568 201.532 36.3921 195.567 29.0341 195.567C21.6762 195.567 15.7114 201.532 15.7114 208.89C15.7114 216.248 21.6762 222.212 29.0341 222.212Z" fill="#FBBEBE"/>
<path d="M111.742 239.396C111.742 239.396 128.109 267.523 132.005 271.745C133.857 273.824 135.83 275.79 137.915 277.636C137.915 277.636 136.083 283.71 133.167 283.493C131.505 283.393 129.874 282.991 128.356 282.308C128.356 282.308 127.054 278.933 124.784 277.453C122.513 275.974 103.963 257.724 104.396 251.891C104.83 246.058 111.742 239.396 111.742 239.396Z" fill="#2F2E41"/>
<path d="M53.4537 279.534C53.4537 279.534 70.9049 293.079 94.6215 280.352L96.6654 278.848C96.6654 278.848 93.2162 286.607 92.8961 288.711C92.5251 291.15 83.545 305.439 82.0796 306.123C80.6141 306.808 80.2912 307.439 80.2912 307.439L86.51 314.284L88.8094 312.592C88.8094 312.592 97.7751 299.889 100.397 297.566C103.02 295.242 115.513 271.278 115.513 271.278C115.513 271.278 120.29 262.249 108.369 261.57C96.4476 260.891 90.9619 264.14 90.9619 264.14L69.8046 267.501L53.4537 279.534Z" fill="#2F2E41"/>
<path d="M138.117 276.305L146.944 282.412C146.944 282.412 158.205 285.941 151.268 288.289C144.332 290.636 126.052 291.486 125.637 288.246C125.223 285.007 126.358 279.908 127.27 280.187C128.182 280.466 134.512 282.109 138.117 276.305Z" fill="#2F2E41"/>
<path d="M89.5904 310.494L91.2241 319.465C91.2241 319.465 95.8696 328.35 90.2919 325.593C84.7142 322.837 73.2227 312.366 74.9196 310.17C76.6165 307.975 80.3618 305.594 80.7422 306.31C81.1225 307.025 83.9376 311.815 89.5904 310.494Z" fill="#2F2E41"/>
<path d="M72.7598 270.446C72.7598 270.446 60.897 284.296 53.6949 280.932C46.4928 277.568 17.0276 238.599 20.392 231.397C23.7564 224.195 24.8845 225.728 24.8845 225.728L40.0983 227.135L35.7209 220.116C35.7209 220.116 37.7648 218.612 39.7124 220.724C41.66 222.835 49.4792 228.108 52.2032 235.556C54.9272 243.004 62.9245 242.632 62.9245 242.632L72.7598 270.446Z" fill="#C01C25"/>
<path d="M120.665 241.888L100.102 263.716L81.6805 231.192L99.1929 210.034L120.665 241.888Z" fill="#3F3D56"/>
<path d="M119.114 241.651L100.541 260.833L83.7106 231.274L99.1453 211.842L119.114 241.651Z" fill="white"/>
<path d="M99.0943 262.882L100.102 263.716L99.4558 264.979L70.7014 273.537L70.4296 272.552L71.7377 271.199L99.0943 262.882Z" fill="#B3B3B3"/>
<path d="M100.357 263.528L70.5814 272.838L52.4303 238.54L81.6809 231.192L100.357 263.528Z" fill="#D0CDE1"/>
<path d="M98.1158 258.876L96.8382 259.816L82.66 235.198L84.1254 234.514L98.1158 258.876Z" fill="#3F3D56"/>
<path d="M95.1843 260.245L82.5885 264.001L68.2897 238.684L80.7508 235.815L95.1843 260.245Z" fill="#3F3D56"/>
<path d="M59.6994 241.461L62.3073 240.724C62.3073 240.724 76.8509 239.079 77.0632 243.649C77.2755 248.219 60.3552 246.099 60.3552 246.099L58.099 243.033L59.6994 241.461Z" fill="#FBBEBE"/>
<path d="M72.4556 262.006L76.0855 260.516C76.0855 260.516 87.0424 255.603 83.8992 252.402C80.756 249.202 71.0621 254.76 71.0621 254.76L69.2063 256.52L72.4556 262.006Z" fill="#FBBEBE"/>
<path d="M69.2208 254.934C69.2208 254.934 75.1311 260.825 73.7862 262.208C72.4413 263.592 50.3881 281.79 44.9213 275.967C39.4544 270.144 12.8194 240.909 23.1835 238.402C33.5476 235.895 36.286 241.756 36.286 241.756L49.9679 265.164L69.2208 254.934Z" fill="#C01C25"/>
<path d="M51.5237 237.041L61.2323 240.333L61.0738 247.342L50.8059 246.234L51.5237 237.041Z" fill="#C01C25"/>
<path opacity="0.2" d="M60.2742 258.564L49.814 264.687L37.8628 246.306L49.3991 261.447L60.2742 258.564Z" fill="black"/>
<path d="M23.1867 220.888C31.9461 220.888 39.047 213.787 39.047 205.028C39.047 196.268 31.9461 189.167 23.1867 189.167C14.4272 189.167 7.32629 196.268 7.32629 205.028C7.32629 213.787 14.4272 220.888 23.1867 220.888Z" fill="#2F2E41"/>
<path d="M108.884 243.271L97.7783 227.026L102.486 221.198L114.025 237.912L108.884 243.271Z" fill="#143771"/>
<path d="M108.571 249.803L91.6638 225.224L92.4977 224.216L109.326 248.853L108.571 249.803Z" fill="#E6E6E6"/>
<path d="M106.392 252.194L89.4852 227.615L90.3191 226.608L107.147 251.245L106.392 252.194Z" fill="#E6E6E6"/>
<path d="M104.536 253.954L87.6294 229.375L88.4633 228.367L105.291 253.005L104.536 253.954Z" fill="#E6E6E6"/>
<path d="M30.2101 194.439H35.1165C37.6007 194.439 39.9831 195.426 41.7397 197.182C43.4963 198.939 44.4832 201.321 44.4832 203.806H30.2101V194.439Z" fill="#2F2E41"/>
<path d="M97.7948 188.478L96.9053 188.412C96.8708 188.875 96.8461 189.34 96.8168 189.804L92.8243 189.67L97.0122 197.518L101.716 189.968L97.7086 189.834C97.7372 189.382 97.7612 188.929 97.7948 188.478Z" fill="#3F3D56"/>
<path d="M121.212 124.51L121.921 125.051C122.985 123.658 124.096 122.267 125.223 120.917L124.538 120.345C123.403 121.705 122.283 123.106 121.212 124.51Z" fill="#3F3D56"/>
<path d="M128.045 116.332L128.704 116.933C129.887 115.637 131.116 114.35 132.356 113.107L131.724 112.477C130.475 113.729 129.238 115.026 128.045 116.332Z" fill="#3F3D56"/>
<path d="M135.568 108.789L136.171 109.446C137.466 108.257 138.802 107.084 140.143 105.957L139.57 105.274C138.218 106.409 136.872 107.592 135.568 108.789Z" fill="#3F3D56"/>
<path d="M115.123 133.261L115.877 133.738C116.815 132.254 117.799 130.771 118.803 129.327L118.071 128.818C117.06 130.272 116.068 131.767 115.123 133.261Z" fill="#3F3D56"/>
<path d="M143.721 101.938L144.264 102.646C145.658 101.576 147.092 100.524 148.526 99.5205L148.014 98.7896C146.569 99.8008 145.125 100.86 143.721 101.938Z" fill="#3F3D56"/>
<path d="M109.83 142.52L110.623 142.928C111.427 141.365 112.276 139.799 113.149 138.274L112.374 137.831C111.495 139.368 110.639 140.945 109.83 142.52Z" fill="#3F3D56"/>
<path d="M101.225 167.63L100.362 167.407C99.9208 169.119 99.5127 170.864 99.1486 172.595L100.021 172.779C100.383 171.061 100.788 169.329 101.225 167.63Z" fill="#3F3D56"/>
<path d="M152.442 95.8342L152.92 96.5869C154.399 95.646 155.919 94.7254 157.439 93.8505L156.994 93.0774C155.463 93.959 153.931 94.8864 152.442 95.8342Z" fill="#3F3D56"/>
<path d="M99.0478 177.977L98.1675 177.832C97.8811 179.574 97.6295 181.348 97.4198 183.107L98.3058 183.212C98.5138 181.467 98.7636 179.706 99.0478 177.977Z" fill="#3F3D56"/>
<path d="M105.377 152.218L106.203 152.553C106.865 150.925 107.572 149.289 108.306 147.691L107.496 147.319C106.756 148.929 106.043 150.577 105.377 152.218Z" fill="#3F3D56"/>
<path d="M101.804 162.279L102.657 162.539C103.172 160.856 103.731 159.163 104.319 157.506L103.478 157.208C102.886 158.876 102.322 160.583 101.804 162.279Z" fill="#3F3D56"/>
<path d="M212.786 78.0539C214.535 77.9934 216.315 77.9692 218.077 77.9858L218.085 77.0937C216.311 77.0771 214.516 77.1013 212.755 77.1623L212.786 78.0539Z" fill="#3F3D56"/>
<path d="M161.662 90.5257L162.072 91.3176C163.63 90.5105 165.225 89.7284 166.813 88.9929L166.437 88.1836C164.838 88.9245 163.231 89.7125 161.662 90.5257Z" fill="#3F3D56"/>
<path d="M233.894 79.1661C235.634 79.4124 237.39 79.7008 239.114 80.0233L239.278 79.1465C237.542 78.8215 235.772 78.5308 234.019 78.2827L233.894 79.1661Z" fill="#3F3D56"/>
<path d="M244.292 81.1112C246 81.5102 247.724 81.9536 249.415 82.4291L249.656 81.5701C247.953 81.0912 246.216 80.6447 244.495 80.2427L244.292 81.1112Z" fill="#3F3D56"/>
<path d="M254.473 83.9742C256.139 84.5236 257.816 85.1186 259.459 85.7428L259.776 84.9091C258.121 84.2802 256.431 83.6806 254.753 83.127L254.473 83.9742Z" fill="#3F3D56"/>
<path d="M223.365 78.1476C225.122 78.2397 226.897 78.3721 228.641 78.5407L228.727 77.653C226.97 77.4829 225.181 77.3496 223.412 77.2568L223.365 78.1476Z" fill="#3F3D56"/>
<path d="M202.135 77.9969L202.244 78.8825C203.983 78.6686 205.753 78.4902 207.505 78.3526L207.435 77.4631C205.67 77.6019 203.886 77.7815 202.135 77.9969Z" fill="#3F3D56"/>
<path d="M181.325 82.4596L181.589 83.3116C183.265 82.7926 184.976 82.3043 186.674 81.8602L186.448 80.9973C184.737 81.4444 183.014 81.9364 181.325 82.4596Z" fill="#3F3D56"/>
<path d="M171.31 86.0565L171.649 86.882C173.271 86.2164 174.928 85.5793 176.573 84.988L176.272 84.1487C174.613 84.7441 172.944 85.3862 171.31 86.0565Z" fill="#3F3D56"/>
<path d="M191.631 79.7649L191.818 80.6374C193.532 80.27 195.279 79.9356 197.012 79.644L196.864 78.7642C195.118 79.0582 193.358 79.3949 191.631 79.7649Z" fill="#3F3D56"/>
<path d="M272.769 91.2582L267.784 83.8911L266.031 87.4992C265.606 87.3098 265.185 87.1162 264.761 86.9327L264.406 87.7516C264.82 87.9307 265.229 88.1185 265.641 88.302L263.896 91.8931L272.769 91.2582Z" fill="#3F3D56"/>
</g>
<defs>
<clipPath id="clip0_18_666">
<rect width="403.884" height="326.124" fill="white"/>
</clipPath>
</defs>
</svg>
